<svg width="31" height="15" viewBox="0 0 31 15" fill="none" xmlns="http://www.w3.org/2000/svg">
<path d="M18.0731 7.72558C17.945 7.33402 17.8802 6.92428 17.8802 6.50791C17.8802 4.34803 19.6373 2.59088 21.7972 2.59088C23.9571 2.59088 25.7142 4.34803 25.7142 6.50791C25.7142 8.66785 23.9571 10.425 21.7972 10.425C20.326 10.425 18.9918 9.61253 18.3155 8.30456L17.623 8.66272C18.4338 10.2306 20.0334 11.2046 21.7972 11.2046C24.387 11.2046 26.4938 9.09767 26.4938 6.50791C26.4938 3.91821 24.387 1.81128 21.7972 1.81128C19.2075 1.81128 17.1006 3.91821 17.1006 6.50791C17.1006 7.00672 17.1784 7.49781 17.332 7.96777L18.0731 7.72558Z" fill="white"/>
<path d="M1.80671 14.2526H3.01821V15H3.79781V14.2526V13.711H11.8784V14.9778H13.4034H14.183H23.0995C27.2289 14.9778 30.5883 11.6184 30.5883 7.48896C30.5883 3.35955 27.2288 0 23.0995 0H18.5169L17.8183 0.702159L17.7629 0.647781C17.2522 0.145655 16.4254 0.149748 15.9197 0.657072L14.3753 2.20652C14.1276 2.45509 13.9921 2.78531 13.9938 3.13633C13.9956 3.48728 14.1344 3.81614 14.3846 4.06223L14.4302 4.10706L13.4033 5.13912V10.7144L11.8784 11.6532V12.9315H3.79781V12.7838H10.9534V12.0042H3.79781V11.4626H1.80671C1.03744 11.4626 0.411621 12.0884 0.411621 12.8577C0.411621 13.6268 1.03744 14.2526 1.80671 14.2526ZM14.9799 3.55406L14.9313 3.50625C14.8302 3.40691 14.7742 3.27412 14.7734 3.1323C14.7727 2.99054 14.8274 2.85723 14.9275 2.75686L16.472 1.2074C16.5747 1.10424 16.7103 1.05259 16.846 1.05259C16.9799 1.05259 17.1139 1.10287 17.2163 1.20364L17.2683 1.25476L16.616 1.91041L14.9799 3.55406ZM14.183 5.46076L17.2274 2.4011L18.3742 1.24892L18.841 0.779533H21.7973C23.9276 0.779533 25.8638 1.95374 26.8505 3.84388L27.5416 3.48312C27.0864 2.61107 26.4534 1.87318 25.6999 1.30414C28.1117 2.32204 29.8087 4.71092 29.8087 7.48889C29.8087 11.1884 26.799 14.1982 23.0995 14.1982H15.9646V12.9517H22.2548C25.5733 12.9517 28.2731 10.2519 28.2731 6.9333V6.47574C28.2731 5.6621 28.1241 4.86853 27.8301 4.11706L27.1041 4.4011C27.3626 5.06168 27.4935 5.75961 27.4935 6.47574V6.9333C27.4935 9.82197 25.1434 12.1721 22.2548 12.1721H15.185V14.1982H14.1829V10.2342L14.183 5.46076ZM12.658 12.0887L13.4033 11.6299V14.1983H12.658V12.0887ZM1.80671 12.242H3.01821V12.4678V12.7436V12.9839V13.2474V13.2587V13.473H1.80671C1.46733 13.473 1.19122 13.1969 1.19122 12.8576C1.19122 12.5181 1.46733 12.242 1.80671 12.242Z" fill="white"/>
</svg>
