<svg width="100" height="100" viewBox="0 0 100 100" fill="none" xmlns="http://www.w3.org/2000/svg">
<g clip-path="url(#clip0)">
<path d="M8.96833 100C6.57319 100 4.32172 99.0697 2.62782 97.3758C0.932228 95.6784 0 93.427 0 91.03C0 88.6366 0.932228 86.3817 2.62782 84.6877L20.7598 66.5558C22.4537 64.8619 24.7051 63.928 27.1003 63.928C29.4956 63.928 31.7487 64.8619 33.4444 66.5522C36.9405 70.0536 36.9386 75.746 33.4444 79.2403L15.3124 97.3758C13.6168 99.0697 11.3636 100 8.96833 100ZM27.1003 67.5643C25.6763 67.5643 24.3375 68.1183 23.3308 69.1268L5.19889 87.2587C4.19033 88.2673 3.63639 89.6061 3.63639 91.03C3.63639 92.454 4.19033 93.7964 5.19889 94.8047C7.2124 96.8183 10.7244 96.8183 12.7414 94.8014L30.8734 76.6693C32.9508 74.5919 32.9508 71.2077 30.8716 69.1268C29.8649 68.1183 28.5261 67.5643 27.1003 67.5643Z" fill="white"/>
<path d="M33.9842 72.8908C33.8262 72.8908 33.6664 72.8695 33.5084 72.827C32.8798 72.6564 32.3898 72.1629 32.2246 71.5343C31.9779 70.5863 31.5215 69.7766 30.8716 69.1232C30.2254 68.4804 29.414 68.0259 28.4622 67.7737C27.8337 67.6068 27.3419 67.1167 27.1714 66.4881C27.0028 65.8597 27.1821 65.1885 27.642 64.7305L33.4587 58.9137C33.8209 58.548 34.3198 58.3526 34.8347 58.3812C35.3479 58.4095 35.8272 58.651 36.1522 59.0487C37.585 60.7993 39.199 62.4151 40.9514 63.8462C41.3492 64.1729 41.5907 64.6523 41.6173 65.1637C41.6422 65.6786 41.4504 66.1757 41.0864 66.5415L35.2697 72.3582C34.9252 72.7026 34.4601 72.8908 33.9842 72.8908ZM32.0702 65.4442C32.5673 65.7674 33.0272 66.1367 33.4427 66.5522C33.8599 66.9712 34.2327 67.4328 34.5559 67.9265L37.1323 65.352C36.2658 64.5636 35.4366 63.7326 34.6465 62.8662L32.0702 65.4442Z" fill="white"/>
<path d="M62.4248 75.1494C41.7059 75.1494 24.8506 58.2923 24.8506 37.5743C24.8506 16.8553 41.7059 0 62.4248 0C83.1437 0 99.9991 16.8553 99.9991 37.5743C99.9991 58.2923 83.1437 75.1494 62.4248 75.1494ZM62.4248 3.63635C43.7124 3.63635 28.4869 18.8617 28.4869 37.5743C28.4869 56.2859 43.7124 71.513 62.4248 71.513C81.1374 71.513 96.3629 56.2859 96.3629 37.5743C96.3629 18.8617 81.1374 3.63635 62.4248 3.63635Z" fill="white"/>
<path d="M42.7591 37.6063C41.7542 37.6063 40.9409 36.7931 40.9409 35.7881C40.9409 22.9544 51.3795 12.5142 64.2113 12.5142C65.2162 12.5142 66.0296 13.3273 66.0296 14.3323C66.0296 15.3373 65.2162 16.1505 64.2113 16.1505C53.3858 16.1505 44.5773 24.959 44.5773 35.7881C44.5773 36.7931 43.764 37.6063 42.7591 37.6063Z" fill="white"/>
</g>
<defs>
<clipPath id="clip0">
<rect width="99.9991" height="100" fill="white"/>
</clipPath>
</defs>
</svg>
