<svg width="62" height="60" viewBox="0 0 62 60" fill="none" xmlns="http://www.w3.org/2000/svg">
<path d="M57.1344 28.1432C52.8532 20.7284 44.3876 17.2196 36.4259 18.8436L34.3894 15.3165C34.1064 14.8276 33.4802 14.6599 32.9933 14.9423L29.427 17.0013C27.6901 14.3021 25.0614 12.3619 21.9398 11.5254C18.6133 10.6338 15.139 11.0908 12.1547 12.8133C11.6658 13.0956 11.4986 13.7204 11.7805 14.2093C12.0625 14.6973 12.6866 14.865 13.1766 14.5835C15.6868 13.134 18.6108 12.7499 21.4109 13.4993C24.0052 14.1946 26.1951 15.796 27.6568 18.0234L24.1437 20.0517C23.9092 20.1874 23.7376 20.4104 23.6677 20.6724C23.5974 20.9343 23.6343 21.2132 23.7695 21.4478L25.8036 24.9706C23.8229 27.1987 22.3601 29.8626 21.5661 32.826C20.2239 37.8356 20.9125 43.0676 23.5056 47.5588C26.0986 52.0499 30.2854 55.2627 35.295 56.605C36.9675 57.0535 38.665 57.275 40.3515 57.275C43.7155 57.275 47.036 56.3924 50.0278 54.6655C54.5189 52.0724 57.7317 47.8856 59.0739 42.8761C60.4161 37.8669 59.7275 32.6344 57.1344 28.1432ZM33.13 17.2235L34.1519 18.9928L27.0726 23.0803L26.0507 21.311L33.13 17.2235ZM57.1 42.3471C55.899 46.8294 53.0245 50.5755 49.0059 52.8952C44.9863 55.2153 40.3051 55.8301 35.8239 54.631C31.3418 53.43 27.5956 50.5555 25.2758 46.5369C22.9557 42.5188 22.339 37.8371 23.54 33.3549C24.741 28.8733 27.6155 25.1271 31.6341 22.8069C34.3629 21.2312 37.3452 20.4827 40.2906 20.4827C46.2985 20.4827 52.1503 23.5988 55.3642 29.1651C57.6843 33.1837 58.301 37.865 57.1 42.3471Z" fill="#7092B9"/>
<path d="M32.9114 25.0188C25.8357 29.1044 23.4027 38.1839 27.4878 45.2596C27.6773 45.5874 28.0207 45.7705 28.3739 45.7705C28.547 45.7705 28.7232 45.7267 28.8839 45.6338C29.3728 45.3515 29.54 44.7267 29.2581 44.2377C25.7364 38.138 27.8336 30.3108 33.9333 26.7891C34.4223 26.5068 34.5895 25.882 34.3075 25.393C34.0247 24.9041 33.3985 24.7359 32.9114 25.0188Z" fill="#7092B9"/>
<path d="M3.76033 2.27501L2.62671 3.97534L10.4579 9.19644L11.5915 7.49611L3.76033 2.27501Z" fill="#7092B9"/>
<path d="M8.77165 15.5819L3.67065 24.5089L5.44492 25.5227L10.5459 16.5957L8.77165 15.5819Z" fill="#7092B9"/>
<path d="M9.15309 10.3339H2V12.3777H9.15309V10.3339Z" fill="#7092B9"/>
<path d="M20 57.275L58 19.275" stroke="#7092B9" stroke-width="2" stroke-linecap="round" stroke-linejoin="round"/>
</svg>
