<svg width="46" height="45" viewBox="0 0 46 45" fill="none" xmlns="http://www.w3.org/2000/svg">
<path d="M22.0266 10.7634C20.7674 12.0233 20.109 13.5403 20.0803 15.3436C20.0516 17.1183 20.6238 18.6646 21.855 19.9813L24.1163 17.8053C23.5154 17.147 23.2003 16.3458 23.229 15.4011C23.2578 14.4563 23.6009 13.6551 24.2593 12.9962L33.1052 4.15087C33.7634 3.49255 34.5934 3.14935 35.5668 3.14935C36.5396 3.14935 37.3726 3.48954 38.0284 4.15087L41.3201 7.47186C41.9766 8.13318 42.3509 8.93142 42.3509 9.93348C42.3509 10.9351 41.9796 11.7363 41.3201 12.3952L32.4462 21.2692C31.7879 21.9275 31.0154 22.242 30.0707 22.2713C29.1546 22.2994 28.3527 21.9849 27.6945 21.3266L25.5479 23.6741C26.8646 24.8759 28.4102 25.4487 30.1849 25.4201C31.9602 25.3913 33.4771 24.733 34.7364 23.4731L43.5822 14.6278C44.8701 13.3399 45.5285 11.7656 45.5285 9.93341C45.5285 8.10139 44.8702 6.52698 43.5822 5.23844L40.2613 1.91815C38.9733 0.630224 37.3989 0 35.5669 0C33.7349 0 32.1604 0.630224 30.8719 1.91815L22.0266 10.7634Z" fill="#7092B9"/>
<path d="M16.1585 27.1092C15.5417 27.726 15.5002 28.6835 16.1585 29.3419C16.7307 29.9141 17.819 29.9141 18.3913 29.3419L29.8704 17.8627C30.4426 17.2905 30.4426 16.2023 29.8704 15.6301C29.2121 14.9718 28.2545 15.0133 27.6377 15.6301L16.1585 27.1092Z" fill="#7092B9"/>
<path d="M2.44659 30.3434C1.15867 31.6319 0.528442 33.2063 0.528442 35.0384C0.528442 36.8704 1.15867 38.4448 2.44659 39.7328L5.76688 43.0537C7.05543 44.3416 8.60112 45 10.4618 45C12.3226 45 13.8683 44.3417 15.1562 43.0537L24.0015 34.2078C25.2613 32.9486 25.9196 31.4316 25.9484 29.6563C25.9771 27.8817 25.4043 26.336 24.2025 25.0193L21.855 27.1659C22.5133 27.8242 22.8284 28.626 22.7997 29.5707C22.7717 30.4868 22.4559 31.2594 21.7976 31.9177L12.9236 40.7918C12.2653 41.4506 11.4354 41.7938 10.4619 41.7938C9.4885 41.7938 8.66101 41.4476 8.00022 40.7918L4.67923 37.5001C4.01791 36.8443 3.67771 36.0113 3.67771 35.0385C3.67771 34.0651 4.02092 33.2351 4.67923 32.5768L13.5245 23.7309C14.1835 23.0726 14.9847 22.7294 15.9294 22.7007C16.8741 22.672 17.6754 22.9871 18.3337 23.588L20.5096 21.3267C19.193 20.0955 17.6467 19.5226 15.8434 19.552C14.0687 19.5801 12.5517 20.239 11.2919 21.4983L2.44659 30.3434Z" fill="#7092B9"/>
</svg>
