<svg width="42" height="50" viewBox="0 0 42 50" fill="none" xmlns="http://www.w3.org/2000/svg">
<path d="M34.2426 21.9502L34.2423 21.9496C33.8568 21.2777 32.9935 21.0448 32.3138 21.4315C32.3137 21.4315 32.3136 21.4316 32.3135 21.4316L20.916 28.0138L20.8409 28.0571L20.7659 28.0138L9.37081 21.4313C8.69497 21.0423 7.83122 21.2739 7.43917 21.9502C7.04757 22.6258 7.27884 23.4892 7.95811 23.8813L20.1347 30.9095L20.1351 30.9098C20.3528 31.0365 20.5983 31.1 20.8409 31.1C21.0836 31.1 21.3291 31.0366 21.5467 30.9098L21.5472 30.9095L33.7265 23.8814L34.2426 21.9502ZM34.2426 21.9502C34.6342 22.6258 34.4029 23.4893 33.7267 23.8813L34.2426 21.9502ZM22.2534 46.7957V46.9599L22.417 46.9451C30.7197 46.1908 37.3442 39.5663 38.0985 31.2636L38.1134 31.1H37.9491H36.4659C35.6851 31.1 35.0534 30.4683 35.0534 29.6875C35.0534 28.9067 35.6851 28.275 36.4659 28.275H37.9491H38.1134L38.0985 28.1114C37.3442 19.8087 30.7197 13.1811 22.417 12.4299L22.2534 12.4151V12.5793V14.0625C22.2534 14.8433 21.6218 15.475 20.8409 15.475C20.0601 15.475 19.4284 14.8433 19.4284 14.0625V12.5794V12.4152L19.2649 12.43C10.9622 13.1812 4.3346 19.8088 3.58345 28.1115L3.56865 28.275H3.73284H5.21594C5.99677 28.275 6.62844 28.9067 6.62844 29.6875C6.62844 30.4683 5.99677 31.1 5.21594 31.1H3.73284H3.56865L3.58345 31.2635C4.33461 39.5663 10.9622 46.1908 19.2649 46.9451L19.4284 46.9599V46.7957V45.3125C19.4284 44.5317 20.0601 43.9 20.8409 43.9C21.6218 43.9 22.2534 44.5317 22.2534 45.3125V46.7957ZM23.9659 6.1H23.8159V6.25V7.89026C22.8419 7.75596 21.8532 7.6625 20.8409 7.6625C19.8287 7.6625 18.84 7.75596 17.8659 7.89026V6.25V6.1H17.7159C16.9351 6.1 16.3034 5.46833 16.3034 4.6875V1.5625C16.3034 0.781671 16.9351 0.15 17.7159 0.15H23.9659C24.7468 0.15 25.3784 0.781671 25.3784 1.5625V4.6875C25.3784 5.46833 24.7468 6.1 23.9659 6.1ZM30.7639 6.55083L30.7639 6.55077C31.156 5.8715 32.0195 5.64022 32.695 6.03182L32.6952 6.03193L35.3989 7.59432C35.3989 7.59434 35.399 7.59436 35.399 7.59438C36.0751 7.98635 36.3069 8.84695 35.9179 9.52592C35.9178 9.52601 35.9178 9.5261 35.9177 9.52619L34.3555 12.2296L34.3545 12.2313C34.3444 12.2494 34.3297 12.2669 34.3051 12.2918C32.7471 11.0851 31.0292 10.0786 29.1785 9.31821C29.1865 9.28989 29.1934 9.26995 29.2026 9.25267L30.7639 6.55083ZM0.678442 29.6875C0.678442 18.5521 9.70552 9.525 20.8409 9.525C31.9764 9.525 41.0034 18.5521 41.0034 29.6875C41.0034 40.8229 31.9764 49.85 20.8409 49.85C9.70552 49.85 0.678442 40.8229 0.678442 29.6875Z" fill="#7092B9" stroke="white" stroke-width="0.3"/>
</svg>
