<svg width="52" height="52" viewBox="0 0 52 52" fill="none" xmlns="http://www.w3.org/2000/svg">
<path d="M49.868 33.0617C50.0752 33.2699 50.2392 33.517 50.3506 33.7889C50.462 34.0607 50.5186 34.3518 50.5171 34.6455V48.7592C50.5171 49.3506 50.2822 49.9177 49.864 50.3358C49.4459 50.754 48.8788 50.9889 48.2874 50.9889H18.4575C18.5834 50.8999 18.7024 50.7999 18.8129 50.6894C18.877 50.6253 18.9375 50.5584 18.9945 50.4889M49.868 33.0617C49.6608 32.8535 49.4145 32.6883 49.1433 32.5755C48.872 32.4628 48.5812 32.4047 48.2874 32.4047H19.6124V32.9047M49.868 33.0617L49.5136 33.4144C49.6743 33.5759 49.8015 33.7676 49.8879 33.9785C49.9743 34.1893 50.0182 34.4152 50.0171 34.643V34.6455V48.7592C50.0171 49.218 49.8349 49.6579 49.5105 49.9823C49.1861 50.3067 48.7462 50.4889 48.2874 50.4889H18.9945M49.868 33.0617L49.5136 33.4144C49.3528 33.2529 49.1618 33.1247 48.9514 33.0372C48.7409 32.9497 48.5153 32.9047 48.2874 32.9047H19.6124M19.6124 32.9047H19.1124V48.7592C19.1124 49.3506 18.8775 49.9177 18.4594 50.3358C18.4052 50.39 18.3486 50.441 18.2898 50.4889H18.6124H18.9945M19.6124 32.9047V48.7592C19.6124 49.3926 19.3923 50.0032 18.9945 50.4889" stroke="#7092B9"/>
<path d="M48.2874 32.4047H19.1124V48.7592C19.1124 49.3506 18.8775 49.9177 18.4594 50.3358C18.0412 50.754 17.4741 50.9889 16.8828 50.9889H48.2874C48.8788 50.9889 49.4459 50.754 49.864 50.3358C50.2822 49.9177 50.5171 49.3506 50.5171 48.7592V34.6455C50.5186 34.3518 50.462 34.0607 50.3506 33.7889C50.2392 33.517 50.0752 33.2699 49.868 33.0617C49.6608 32.8535 49.4145 32.6883 49.1433 32.5755C48.872 32.4628 48.5812 32.4047 48.2874 32.4047Z" stroke="#7092B9" stroke-linejoin="round"/>
<path d="M35.7793 36.7508H44.7537C45.1856 36.7508 45.5358 37.1009 45.5358 37.5328V45.8606C45.5358 46.2925 45.1856 46.6427 44.7537 46.6427H35.7793C35.3474 46.6427 34.9973 46.2925 34.9973 45.8606V37.5328C34.9973 37.1009 35.3474 36.7508 35.7793 36.7508Z" stroke="#7092B9"/>
<path d="M44.7537 36.2508H35.7793C35.0713 36.2508 34.4973 36.8248 34.4973 37.5328V45.8606C34.4973 46.5687 35.0713 47.1427 35.7793 47.1427H44.7537C45.4618 47.1427 46.0358 46.5687 46.0358 45.8606V37.5328C46.0358 36.8248 45.4618 36.2508 44.7537 36.2508Z" stroke="#7092B9" stroke-linejoin="round"/>
<path d="M28.731 46.6761H19.6124V36.7731H28.7311C28.9361 36.7753 29.1323 36.8568 29.2786 37.0005C29.424 37.1433 29.5087 37.3366 29.5154 37.5401V45.8917C29.5132 46.099 29.4298 46.2972 29.2832 46.4439C29.1365 46.5905 28.9383 46.6739 28.731 46.6761Z" stroke="#7092B9"/>
<path d="M19.1124 36.2731V47.1761H28.7334C29.0725 47.1732 29.3969 47.0372 29.6367 46.7974C29.8765 46.5576 30.0125 46.2332 30.0154 45.8941V37.5329C30.0068 37.1977 29.8682 36.8789 29.629 36.6439C29.3899 36.4088 29.0687 36.2759 28.7334 36.2731H19.1124Z" stroke="#7092B9" stroke-linejoin="round"/>
<path d="M47.7815 30.4106L47.7804 30.4113L19.6124 46.7322V26.4047L38.9624 15.1558L38.9639 15.1549C39.1603 15.0398 39.3774 14.9646 39.6029 14.9336C39.8284 14.9027 40.0578 14.9165 40.2779 14.9743C40.4981 15.0322 40.7047 15.1329 40.8858 15.2707C41.0667 15.4084 41.2188 15.5805 41.3332 15.777C41.3333 15.7772 41.3334 15.7774 41.3335 15.7776L48.4118 28.0393L48.4128 28.041C48.5276 28.2379 48.6022 28.4555 48.6326 28.6814C48.663 28.9072 48.6484 29.1368 48.5897 29.357C48.531 29.5772 48.4294 29.7837 48.2908 29.9645C48.1521 30.1453 47.979 30.2969 47.7815 30.4106Z" fill="white" stroke="#7092B9"/>
<path d="M48.031 30.8439C48.2856 30.6973 48.5087 30.5019 48.6875 30.2688C48.8663 30.0357 48.9972 29.7696 49.0729 29.4857C49.1485 29.2019 49.1673 28.9059 49.1281 28.6148C49.089 28.3236 48.9927 28.0431 48.8449 27.7893L41.7657 15.5262C41.6182 15.2725 41.4221 15.0505 41.1886 14.8728C40.9551 14.6952 40.6888 14.5653 40.405 14.4908C40.1212 14.4162 39.8255 14.3984 39.5349 14.4383C39.2442 14.4782 38.9642 14.5752 38.7111 14.7235L19.1124 26.117V47.5998L48.031 30.8439Z" stroke="#7092B9" stroke-linejoin="round"/>
<path d="M30.0671 24.7917L37.8313 20.291C38.2049 20.0744 38.6834 20.2017 38.9001 20.5754L43.0821 27.7898C43.2987 28.1635 43.1714 28.642 42.7977 28.8586L35.0335 33.3594C34.6599 33.576 34.1814 33.4486 33.9647 33.075L29.7827 25.8606C29.5661 25.4869 29.6934 25.0084 30.0671 24.7917Z" stroke="#7092B9"/>
<path d="M37.5805 19.8584L29.8163 24.3592C29.2037 24.7143 28.995 25.4987 29.3501 26.1113L33.5322 33.3257C33.8873 33.9383 34.6717 34.147 35.2843 33.7919L43.0485 29.2912C43.6611 28.9361 43.8698 28.1516 43.5147 27.5391L39.3326 20.3246C38.9775 19.7121 38.1931 19.5033 37.5805 19.8584Z" stroke="#7092B9" stroke-linejoin="round"/>
<path d="M23.935 28.3328L23.9351 28.3328L23.9428 28.3281C24.0326 28.2736 24.1323 28.2377 24.2362 28.2226C24.3401 28.2075 24.4459 28.2134 24.5475 28.24C24.649 28.2667 24.7441 28.3135 24.8272 28.3777C24.9103 28.4419 24.9795 28.5222 25.0309 28.6137L25.0308 28.6138L25.0355 28.6218L29.2942 35.8905L29.2947 35.8914C29.3466 35.9795 29.3804 36.0771 29.3942 36.1785C29.408 36.2798 29.4015 36.3829 29.3751 36.4817L29.8581 36.6109L29.3751 36.4817C29.3487 36.5805 29.3028 36.6731 29.2403 36.754C29.1777 36.8349 29.0997 36.9026 29.0107 36.953L29.0093 36.9539L21.2055 41.4132L21.2054 41.413L21.1943 41.4198C21.1035 41.4749 21.0024 41.5109 20.8972 41.5256C20.792 41.5403 20.685 41.5335 20.5825 41.5055L20.4507 41.9878L20.5825 41.5055C20.4801 41.4775 20.3844 41.4289 20.3013 41.3628C20.2183 41.2966 20.1496 41.2142 20.0994 41.1206L20.0951 41.1126L20.0906 41.1048L19.6124 40.2851V30.8525L23.935 28.3328Z" stroke="#7092B9"/>
<path d="M23.6832 27.9008L19.1124 30.5652V40.4203L19.6587 41.3568C19.7409 41.5102 19.8536 41.6453 19.9897 41.7538C20.1259 41.8623 20.2827 41.9419 20.4507 41.9878C20.6186 42.0337 20.7942 42.0449 20.9666 42.0208C21.139 41.9966 21.3047 41.9376 21.4536 41.8473L29.2574 37.388C29.404 37.3048 29.5327 37.1932 29.6358 37.0598C29.739 36.9264 29.8145 36.7738 29.8581 36.6109C29.9017 36.448 29.9124 36.2781 29.8897 36.111C29.8669 35.9439 29.8111 35.783 29.7256 35.6377L25.4669 28.369C25.3827 28.219 25.2691 28.0874 25.133 27.9821C24.9968 27.8769 24.8409 27.8001 24.6744 27.7564C24.508 27.7127 24.3344 27.703 24.1641 27.7278C23.9938 27.7526 23.8303 27.8114 23.6832 27.9008Z" stroke="#7092B9" stroke-linejoin="round"/>
<path d="M36.9413 12.8219L36.9405 12.8232L19.6124 42.7718V7.63199L21.675 4.01431C21.6752 4.01403 21.6754 4.01374 21.6755 4.01345C21.7892 3.81634 21.9406 3.64358 22.1212 3.50509C22.302 3.36639 22.5084 3.26479 22.7286 3.20613C22.9488 3.14746 23.1784 3.13289 23.4043 3.16324C23.6301 3.19359 23.8478 3.26827 24.0447 3.38299L24.0447 3.38299L24.0467 3.38417L36.3098 10.4522L36.3099 10.4523C36.5074 10.566 36.6805 10.7176 36.8192 10.8984C36.9579 11.0792 37.0595 11.2857 37.1181 11.5059C37.1768 11.7261 37.1914 11.9557 37.161 12.1815C37.1307 12.4074 37.056 12.625 36.9413 12.8219Z" fill="white" stroke="#7092B9"/>
<mask id="path-14-inside-1" fill="white">
<path d="M19.1124 44.5117V44.6343L19.9708 43.1404L19.1124 44.5117Z"/>
</mask>
<path d="M19.1124 44.5117V44.6343L19.9708 43.1404L19.1124 44.5117Z" fill="white"/>
<path d="M19.1124 44.5117L18.2648 43.9811L18.1124 44.2245V44.5117H19.1124ZM19.1124 44.6343H18.1124V48.3817L19.9795 45.1325L19.1124 44.6343ZM19.9708 43.1404L20.8379 43.6387L19.1232 42.6098L19.9708 43.1404ZM18.1124 44.5117V44.6343H20.1124V44.5117H18.1124ZM19.9795 45.1325L20.8379 43.6387L19.1038 42.6422L18.2454 44.1361L19.9795 45.1325ZM19.1232 42.6098L18.2648 43.9811L19.96 45.0423L20.8185 43.6711L19.1232 42.6098Z" fill="#7092B9" mask="url(#path-14-inside-1)"/>
<path d="M37.3733 13.0736C37.5212 12.8198 37.6174 12.5393 37.6566 12.2481C37.6957 11.957 37.6769 11.661 37.6013 11.3771C37.5257 11.0933 37.3947 10.8272 37.2159 10.5941C37.0371 10.361 36.814 10.1656 36.5595 10.019L24.2964 2.95097C24.0426 2.80309 23.762 2.70682 23.4709 2.66769C23.1798 2.62857 22.8838 2.64736 22.5999 2.72298C22.3161 2.79861 22.0499 2.92957 21.8169 3.10836C21.5838 3.28715 21.3883 3.51023 21.2417 3.76479L19.1124 7.49946V44.6344L37.3733 13.0736Z" stroke="#7092B9" stroke-linejoin="round"/>
<path d="M26.278 21.9962L26.278 21.9961L26.2744 21.994L19.6124 18.1473V15.3129L23.2361 8.9414C23.34 8.76279 23.5103 8.63253 23.71 8.57912C23.91 8.52561 24.1231 8.55361 24.3025 8.65696C24.3026 8.65705 24.3028 8.65713 24.3029 8.65721L31.515 12.8373L31.515 12.8373L31.5191 12.8397C31.608 12.8901 31.6861 12.9578 31.7486 13.0387C31.8112 13.1196 31.857 13.2122 31.8835 13.311C31.9099 13.4098 31.9164 13.5129 31.9026 13.6142L32.398 13.6817L31.9026 13.6142C31.8888 13.7156 31.855 13.8132 31.8031 13.9013L31.803 13.9013L31.7998 13.9069L27.3405 21.7107L27.3397 21.7121C27.2892 21.8011 27.2216 21.8792 27.1407 21.9417C27.0597 22.0043 26.9672 22.0501 26.8684 22.0765C26.7695 22.103 26.6665 22.1095 26.5651 22.0957C26.4638 22.0819 26.3662 22.048 26.278 21.9962Z" stroke="#7092B9"/>
<path d="M23.8924 27.193C23.946 27.3932 23.919 27.6064 23.8174 27.7869L19.6124 35.0841V24.4901L23.5325 26.7168C23.7099 26.8226 23.839 26.9934 23.8924 27.193Z" stroke="#7092B9"/>
<path d="M19.1124 36.9532L24.2518 28.0346C24.4186 27.7397 24.463 27.3911 24.3754 27.0638C24.2879 26.7365 24.0753 26.4566 23.7836 26.2843L19.1124 23.631V36.9532Z" stroke="#7092B9" stroke-linejoin="round"/>
<path d="M19.1124 15.1807V18.4359L26.0244 22.427C26.1697 22.5126 26.3306 22.5684 26.4976 22.5911C26.6647 22.6139 26.8347 22.6031 26.9976 22.5596C27.1605 22.516 27.3131 22.4404 27.4465 22.3373C27.5799 22.2341 27.6914 22.1055 27.7746 21.9588L32.2339 14.155C32.3195 14.0097 32.3753 13.8488 32.398 13.6817C32.4208 13.5146 32.4101 13.3447 32.3665 13.1818C32.3229 13.0189 32.2473 12.8663 32.1442 12.7329C32.0411 12.5995 31.9124 12.4879 31.7657 12.4047L24.5528 8.22413C24.2585 8.05436 23.9089 8.00831 23.5808 8.09611C23.2526 8.1839 22.9727 8.39834 22.8025 8.69235L19.1124 15.1807Z" stroke="#7092B9" stroke-linejoin="round"/>
<path d="M2.7581 1.5H16.8941C17.8494 1.5 18.6238 2.27439 18.6238 3.22965V48.7703C18.6238 49.7256 17.8494 50.5 16.8941 50.5H2.7581C1.80283 50.5 1.02844 49.7256 1.02844 48.7703V3.22965C1.02844 2.27439 1.80283 1.5 2.7581 1.5Z" stroke="#7092B9"/>
<path d="M16.8941 1H2.7581C1.52669 1 0.528442 1.99825 0.528442 3.22965V48.7703C0.528442 50.0018 1.52669 51 2.7581 51H16.8941C18.1255 51 19.1238 50.0018 19.1238 48.7703V3.22965C19.1238 1.99825 18.1255 1 16.8941 1Z" stroke="#7092B9" stroke-linejoin="round"/>
<path d="M5.65638 5.98163H13.9953C14.4272 5.98163 14.7773 6.33176 14.7773 6.76368V15.738C14.7773 16.17 14.4272 16.5201 13.9953 16.5201H5.65638C5.22446 16.5201 4.87433 16.17 4.87433 15.738V6.76368C4.87433 6.33177 5.22447 5.98163 5.65638 5.98163Z" stroke="#7092B9"/>
<path d="M13.9953 5.48163H5.65638C4.94832 5.48163 4.37433 6.05562 4.37433 6.76368V15.738C4.37433 16.4461 4.94832 17.0201 5.65638 17.0201H13.9953C14.7033 17.0201 15.2773 16.4461 15.2773 15.738V6.76368C15.2773 6.05562 14.7033 5.48163 13.9953 5.48163Z" stroke="#7092B9" stroke-linejoin="round"/>
<path d="M5.65638 22.0128H13.9953C14.4272 22.0128 14.7773 22.363 14.7773 22.7949V31.7692C14.7773 32.2011 14.4272 32.5513 13.9953 32.5513H5.65638C5.22447 32.5513 4.87433 32.2011 4.87433 31.7692V22.7949C4.87433 22.363 5.22447 22.0128 5.65638 22.0128Z" stroke="#7092B9"/>
<path d="M13.9953 21.5128H5.65638C4.94832 21.5128 4.37433 22.0868 4.37433 22.7949V31.7692C4.37433 32.4773 4.94832 33.0513 5.65638 33.0513H13.9953C14.7033 33.0513 15.2773 32.4773 15.2773 31.7692V22.7949C15.2773 22.0868 14.7033 21.5128 13.9953 21.5128Z" stroke="#7092B9" stroke-linejoin="round"/>
<path d="M9.82609 46.5072C10.8851 46.5072 11.7436 45.6487 11.7436 44.5897C11.7436 43.5307 10.8851 42.6722 9.82609 42.6722C8.76708 42.6722 7.90858 43.5307 7.90858 44.5897C7.90858 45.6487 8.76708 46.5072 9.82609 46.5072Z" stroke="#7092B9" stroke-linejoin="round"/>
</svg>
