<svg width="59" height="60" viewBox="0 0 59 60" fill="none" xmlns="http://www.w3.org/2000/svg">
<path d="M22.9424 37.3202V36.8202H54.5349C54.858 36.8202 55.178 36.884 55.4763 37.0081C55.7747 37.1321 56.0456 37.3138 56.2735 37.5429C56.5014 37.7719 56.6818 38.0437 56.8044 38.3427C56.9269 38.6417 56.9891 38.962 56.9875 39.2851V54.8102C56.9875 55.4606 56.7291 56.0845 56.2692 56.5444C55.8092 57.0044 55.1854 57.2628 54.5349 57.2628H21.6337C21.792 57.1567 21.9408 57.0347 22.0776 56.898C22.1214 56.8541 22.1638 56.809 22.2045 56.7628M22.9424 37.3202H22.4424V54.8102C22.4424 55.4606 22.184 56.0845 21.724 56.5444C21.6452 56.6232 21.5616 56.6961 21.4739 56.7628H21.9424H22.2045M22.9424 37.3202V54.8102C22.9424 55.5312 22.6786 56.2251 22.2045 56.7628M22.9424 37.3202H54.5349C54.7921 37.3202 55.0469 37.371 55.2844 37.4698C55.5219 37.5685 55.7376 37.7132 55.9191 37.8955C56.1005 38.0779 56.2442 38.2943 56.3417 38.5323C56.4393 38.7704 56.4888 39.0253 56.4875 39.2826V39.2851V54.8102C56.4875 55.328 56.2818 55.8247 55.9156 56.1909C55.5494 56.5571 55.0528 56.7628 54.5349 56.7628H22.2045" stroke="#7092B9"/>
<path d="M54.5349 36.8202H22.4424V54.8102C22.4424 55.4606 22.184 56.0845 21.724 56.5444C21.2641 57.0044 20.6402 57.2628 19.9897 57.2628H54.5349C55.1854 57.2628 55.8092 57.0044 56.2692 56.5444C56.7291 56.0845 56.9875 55.4606 56.9875 54.8102V39.2851C56.9891 38.962 56.9269 38.6417 56.8044 38.3427C56.6818 38.0437 56.5014 37.7719 56.2735 37.5429C56.0456 37.3138 55.7747 37.1321 55.4763 37.0081C55.178 36.884 54.858 36.8202 54.5349 36.8202Z" stroke="#7092B9" stroke-linejoin="round"/>
<path d="M40.776 41.551H50.6478C51.1505 41.551 51.558 41.9585 51.558 42.4612V51.6218C51.558 52.1245 51.1505 52.532 50.6478 52.532H40.776C40.2733 52.532 39.8657 52.1245 39.8657 51.6218V42.4612C39.8657 41.9585 40.2733 41.551 40.776 41.551Z" stroke="#7092B9"/>
<path d="M50.6478 41.051H40.776C39.9971 41.051 39.3657 41.6824 39.3657 42.4612V51.6218C39.3657 52.4006 39.9971 53.032 40.776 53.032H50.6478C51.4266 53.032 52.058 52.4006 52.058 51.6218V42.4612C52.058 41.6824 51.4266 41.051 50.6478 41.051Z" stroke="#7092B9" stroke-linejoin="round"/>
<path d="M33.0233 52.5688H22.9426V41.5755H33.0234C33.2619 41.578 33.4903 41.6727 33.6605 41.84C33.8297 42.0063 33.9283 42.2314 33.9359 42.4684V51.6561C33.9334 51.8974 33.8364 52.128 33.6658 52.2987C33.4952 52.4693 33.2645 52.5662 33.0233 52.5688Z" stroke="#7092B9"/>
<path d="M22.4426 41.0755V53.0688H33.0257C33.3987 53.0656 33.7556 52.916 34.0193 52.6522C34.2831 52.3884 34.4327 52.0316 34.4359 51.6586V42.4612C34.4264 42.0925 34.274 41.7418 34.0109 41.4833C33.7478 41.2248 33.3945 41.0786 33.0257 41.0755H22.4426Z" stroke="#7092B9" stroke-linejoin="round"/>
<path d="M54.0036 34.6701L54.0024 34.6707L22.9426 52.6672V30.1915L44.2525 17.8032L44.2539 17.8023C44.4756 17.6724 44.7208 17.5875 44.9754 17.5525C45.2299 17.5176 45.4889 17.5332 45.7374 17.5985C45.9859 17.6638 46.2191 17.7775 46.4236 17.9331C46.6278 18.0885 46.7994 18.2827 46.9286 18.5045C46.9287 18.5047 46.9289 18.505 46.929 18.5053L54.7153 31.9932L54.7163 31.995C54.8458 32.2173 54.9301 32.4629 54.9644 32.7179C54.9986 32.9729 54.9822 33.2321 54.916 33.4807C54.8497 33.7292 54.735 33.9623 54.5785 34.1664C54.4219 34.3705 54.2265 34.5417 54.0036 34.6701Z" fill="white" stroke="#7092B9"/>
<path d="M54.2531 35.1034C54.5331 34.9421 54.7785 34.7271 54.9752 34.4707C55.1719 34.2143 55.3159 33.9216 55.3991 33.6094C55.4823 33.2971 55.503 32.9716 55.4599 32.6513C55.4169 32.3311 55.311 32.0225 55.1483 31.7433L47.3612 18.2539C47.199 17.9749 46.9832 17.7306 46.7264 17.5352C46.4695 17.3398 46.1766 17.1969 45.8645 17.1149C45.5523 17.0329 45.227 17.0133 44.9073 17.0572C44.5876 17.1011 44.2796 17.2077 44.0012 17.3709L22.4426 29.9038V53.5348L54.2531 35.1034Z" stroke="#7092B9" stroke-linejoin="round"/>
<path d="M34.4674 28.4027L43.008 23.4519C43.4429 23.1998 43.9999 23.3479 44.252 23.7829L48.8523 31.7187C49.1044 32.1537 48.9562 32.7106 48.5213 32.9628L39.9807 37.9136C39.5458 38.1657 38.9888 38.0175 38.7367 37.5826L34.1364 29.6467C33.8843 29.2118 34.0325 28.6548 34.4674 28.4027Z" stroke="#7092B9"/>
<path d="M42.7573 23.0193L34.2167 27.9701C33.5428 28.3607 33.3132 29.2236 33.7038 29.8975L38.3041 37.8333C38.6947 38.5072 39.5576 38.7367 40.2314 38.3461L48.772 33.3953C49.4459 33.0047 49.6755 32.1418 49.2849 31.468L44.6846 23.5321C44.294 22.8583 43.4311 22.6287 42.7573 23.0193Z" stroke="#7092B9" stroke-linejoin="round"/>
<path d="M27.7223 32.2979L27.7223 32.2979L27.7301 32.2932C27.8345 32.2298 27.9507 32.188 28.0716 32.1704C28.1925 32.1528 28.3157 32.1597 28.4339 32.1907C28.5521 32.2217 28.6628 32.2762 28.7595 32.351C28.8561 32.4257 28.9368 32.5191 28.9966 32.6257L28.9965 32.6257L29.0012 32.6337L33.6857 40.6293L33.6862 40.6302C33.7467 40.7329 33.7861 40.8465 33.8022 40.9646L34.2976 40.8971L33.8022 40.9646C33.8182 41.0826 33.8107 41.2027 33.7799 41.3178C33.7491 41.4329 33.6957 41.5408 33.6228 41.635C33.5499 41.7293 33.459 41.8081 33.3554 41.8669L33.354 41.8677L24.7698 46.7729L24.7697 46.7728L24.7586 46.7795C24.6529 46.8436 24.5352 46.8856 24.4128 46.9027C24.2904 46.9199 24.1658 46.9119 24.0465 46.8793L23.9147 47.3616L24.0465 46.8793C23.9273 46.8467 23.8159 46.7902 23.7193 46.7132C23.6226 46.6361 23.5426 46.5402 23.4842 46.4313L23.4799 46.4233L23.4754 46.4155L22.9426 45.5022V35.0841L27.7223 32.2979Z" stroke="#7092B9"/>
<path d="M27.4705 31.8659L22.4426 34.7968V45.6374L23.0435 46.6675C23.134 46.8363 23.2579 46.9849 23.4077 47.1042C23.5575 47.2236 23.73 47.3111 23.9147 47.3616C24.0995 47.4121 24.2925 47.4244 24.4822 47.3979C24.6719 47.3713 24.8541 47.3064 25.0179 47.207L33.602 42.3018C33.7634 42.2103 33.9049 42.0876 34.0184 41.9408C34.1318 41.7941 34.215 41.6262 34.2629 41.447C34.3108 41.2679 34.3226 41.0809 34.2976 40.8971C34.2726 40.7133 34.2112 40.5363 34.1171 40.3765L29.4326 32.381C29.3399 32.2159 29.215 32.0711 29.0652 31.9554C28.9155 31.8396 28.7439 31.7552 28.5608 31.7071C28.3777 31.659 28.1868 31.6483 27.9995 31.6756C27.8122 31.7029 27.6323 31.7676 27.4705 31.8659Z" stroke="#7092B9" stroke-linejoin="round"/>
<path d="M42.0976 15.3042L42.0968 15.3055L22.9426 48.4102V9.55691L25.2182 5.56577C25.2183 5.56548 25.2185 5.56518 25.2187 5.56489C25.347 5.34232 25.518 5.14727 25.7218 4.9909L25.4175 4.59417L25.7218 4.9909C25.9259 4.83433 26.159 4.71963 26.4076 4.6534C26.6562 4.58717 26.9154 4.57072 27.1703 4.60498C27.4253 4.63925 27.671 4.72355 27.8933 4.85306L27.8933 4.85307L27.8953 4.85424L41.3847 12.629L41.3849 12.6291C41.6078 12.7575 41.8032 12.9287 41.9597 13.1328C42.1163 13.3369 42.231 13.57 42.2972 13.8185C42.3634 14.0671 42.3799 14.3263 42.3456 14.5813C42.3114 14.8363 42.2271 15.0819 42.0976 15.3042Z" fill="white" stroke="#7092B9"/>
<mask id="path-14-inside-1" fill="white">
<path d="M22.4426 50.1379V50.2728L23.3869 48.6296L22.4426 50.1379Z"/>
</mask>
<path d="M22.4426 50.1379V50.2728L23.3869 48.6296L22.4426 50.1379Z" fill="white"/>
<path d="M22.4426 50.1379L21.595 49.6073L21.4426 49.8507V50.1379H22.4426ZM22.4426 50.2728H21.4426V54.0202L23.3097 50.7711L22.4426 50.2728ZM23.3869 48.6296L24.2539 49.1278L22.5393 48.099L23.3869 48.6296ZM21.4426 50.1379V50.2728H23.4426V50.1379H21.4426ZM23.3097 50.7711L24.2539 49.1278L22.5198 48.1313L21.5756 49.7746L23.3097 50.7711ZM22.5393 48.099L21.595 49.6073L23.2902 50.6685L24.2345 49.1602L22.5393 48.099Z" fill="#7092B9" mask="url(#path-14-inside-1)"/>
<path d="M42.5296 15.5559C42.6922 15.2767 42.7981 14.9682 42.8412 14.6479C42.8842 14.3277 42.8636 14.0021 42.7804 13.6898C42.6972 13.3776 42.5531 13.0849 42.3564 12.8285C42.1598 12.5721 41.9144 12.3571 41.6344 12.1958L28.145 4.42104C27.8658 4.25837 27.5572 4.15248 27.2369 4.10944C26.9167 4.0664 26.5911 4.08707 26.2789 4.17025C25.9666 4.25344 25.6739 4.39751 25.4175 4.59417C25.1611 4.79084 24.9461 5.03623 24.7849 5.31625L22.4426 9.42439V50.2728L42.5296 15.5559Z" stroke="#7092B9" stroke-linejoin="round"/>
<path d="M30.2994 25.4138L30.2994 25.4138L30.2958 25.4117L22.9426 21.1658V18.0059L26.9344 10.987C26.9347 10.9866 26.935 10.9861 26.9353 10.9856C27.0562 10.7776 27.2545 10.6259 27.487 10.5637C27.7199 10.5014 27.9679 10.534 28.1767 10.6544C28.1769 10.6544 28.177 10.6545 28.1771 10.6546L36.1105 15.2528L36.1105 15.2528L36.1146 15.2551C36.2182 15.3139 36.3091 15.3927 36.382 15.487C36.4549 15.5812 36.5083 15.689 36.5391 15.8041C36.5699 15.9193 36.5774 16.0393 36.5614 16.1574L37.0568 16.2249L36.5614 16.1574C36.5453 16.2754 36.5059 16.3891 36.4454 16.4918L36.4454 16.4918L36.4422 16.4974L31.5369 25.0816L31.5361 25.083C31.4773 25.1866 31.3985 25.2775 31.3043 25.3504C31.21 25.4233 31.1022 25.4767 30.9871 25.5075C30.872 25.5383 30.7519 25.5458 30.6338 25.5298C30.5158 25.5137 30.4021 25.4743 30.2994 25.4138Z" stroke="#7092B9"/>
<path d="M27.7489 31.0743C27.8112 31.3073 27.7798 31.5553 27.6616 31.7653L22.9426 39.9544V28.0282L27.3299 30.5202C27.5364 30.6432 27.6868 30.842 27.7489 31.0743Z" stroke="#7092B9"/>
<path d="M22.4426 41.8235L28.0959 32.0131C28.2794 31.6886 28.3282 31.3052 28.2319 30.9451C28.1356 30.5851 27.9018 30.2772 27.5809 30.0877L22.4426 27.1691V41.8235Z" stroke="#7092B9" stroke-linejoin="round"/>
<path d="M22.4426 17.8737V21.4545L30.0457 25.8447C30.2056 25.9388 30.3826 26.0002 30.5664 26.0252C30.7502 26.0502 30.9371 26.0384 31.1163 25.9905C31.2955 25.9426 31.4633 25.8594 31.6101 25.746C31.7568 25.6325 31.8795 25.491 31.9711 25.3296L36.8763 16.7455C36.9704 16.5856 37.0318 16.4087 37.0568 16.2249C37.0818 16.0411 37.07 15.8541 37.0221 15.6749C36.9741 15.4957 36.891 15.3279 36.7776 15.1811C36.6641 15.0344 36.5226 14.9117 36.3612 14.8202L28.427 10.2215C28.1033 10.0348 27.7188 9.98412 27.3578 10.0807C26.9968 10.1773 26.6889 10.4131 26.5017 10.7366L22.4426 17.8737Z" stroke="#7092B9" stroke-linejoin="round"/>
<path d="M4.45262 2.77502H20.0022C21.0806 2.77502 21.9548 3.64924 21.9548 4.72764V54.8224C21.9548 55.9008 21.0806 56.775 20.0022 56.775H4.45262C3.37422 56.775 2.5 55.9008 2.5 54.8224V4.72764C2.5 3.64924 3.37422 2.77502 4.45262 2.77502Z" stroke="#7092B9"/>
<path d="M20.0022 2.27502H4.45262C3.09808 2.27502 2 3.3731 2 4.72764V54.8224C2 56.177 3.09808 57.275 4.45262 57.275H20.0022C21.3568 57.275 22.4548 56.177 22.4548 54.8224V4.72764C22.4548 3.3731 21.3568 2.27502 20.0022 2.27502Z" stroke="#7092B9" stroke-linejoin="round"/>
<path d="M7.64097 7.70483H16.8138C17.3165 7.70483 17.724 8.11237 17.724 8.61509V18.4869C17.724 18.9896 17.3165 19.3971 16.8138 19.3971H7.64097C7.13825 19.3971 6.73071 18.9896 6.73071 18.4869V8.61509C6.73071 8.11237 7.13825 7.70483 7.64097 7.70483Z" stroke="#7092B9"/>
<path d="M16.8138 7.20483H7.64097C6.86211 7.20483 6.23071 7.83623 6.23071 8.61509V18.4869C6.23071 19.2657 6.86211 19.8971 7.64097 19.8971H16.8138C17.5926 19.8971 18.224 19.2657 18.224 18.4869V8.61509C18.224 7.83623 17.5926 7.20483 16.8138 7.20483Z" stroke="#7092B9" stroke-linejoin="round"/>
<path d="M7.64097 25.3391H16.8138C17.3165 25.3391 17.724 25.7466 17.724 26.2494V36.1212C17.724 36.6239 17.3165 37.0314 16.8138 37.0314H7.64097C7.13825 37.0314 6.73071 36.6239 6.73071 36.1212V26.2494C6.73071 25.7466 7.13825 25.3391 7.64097 25.3391Z" stroke="#7092B9"/>
<path d="M16.8138 24.8391H7.64097C6.86211 24.8391 6.23071 25.4705 6.23071 26.2494V36.1212C6.23071 36.9 6.86211 37.5314 7.64097 37.5314H16.8138C17.5926 37.5314 18.224 36.9 18.224 36.1212V26.2494C18.224 25.4705 17.5926 24.8391 16.8138 24.8391Z" stroke="#7092B9" stroke-linejoin="round"/>
<path d="M12.2274 52.333C13.3923 52.333 14.3367 51.3887 14.3367 50.2237C14.3367 49.0588 13.3923 48.1145 12.2274 48.1145C11.0625 48.1145 10.1182 49.0588 10.1182 50.2237C10.1182 51.3887 11.0625 52.333 12.2274 52.333Z" stroke="#7092B9" stroke-linejoin="round"/>
</svg>
