<svg width="59" height="60" viewBox="0 0 59 60" fill="none" xmlns="http://www.w3.org/2000/svg">
<g clip-path="url(#clip0)">
<path d="M44.3422 45.2164L37.3359 41.8055L35.0312 40.6992V39.9617C37.6125 38.2102 40.4703 34.7992 42.8672 28.3922C44.1117 28.3461 45.1719 27.793 45.8172 26.8711C46.6008 25.7649 46.7391 24.2899 46.1859 23.0914C46.0016 22.6766 45.725 22.3539 45.4484 22.0774H46.5547V17.6524L44.5727 17.0992V16.8227C44.5727 11.061 41.3 5.85237 36.1375 3.31721C35.8609 2.30315 34.9852 1.56565 33.8789 1.56565H30.4219V0.735962H28.5781V1.51956H25.1211C24.0148 1.51956 23.1391 2.25706 22.8625 3.27112C17.7 5.80627 14.4273 11.061 14.4273 16.7766V17.0532L12.4453 17.6524V22.0774H13.5516C13.2289 22.3539 12.9984 22.7227 12.8141 23.0914C12.2609 24.2899 12.3992 25.7649 13.1828 26.8711C13.8742 27.8391 14.9344 28.3461 16.1328 28.3922C18.5297 34.7992 21.4336 38.1641 23.9688 39.9617V40.6992L22.2633 41.5289L14.6578 45.2164C12.768 46.1383 11.5234 48.0742 11.5234 50.1946V58.3531H47.4766V50.1946C47.4766 48.0742 46.232 46.1383 44.3422 45.2164ZM33.1414 41.8977C33.0953 42.1282 33.0492 42.3125 33.0031 42.543V42.5891C32.957 42.6813 32.957 42.7274 32.9109 42.8196C32.9109 42.8657 32.8648 42.9117 32.8648 42.9578C32.8188 43.0039 32.8187 43.05 32.7727 43.0961C32.7266 43.1883 32.6805 43.2805 32.6344 43.3266C32.6344 43.3266 32.6344 43.3266 32.6344 43.3727C32.2195 43.9719 31.6664 44.4328 31.0211 44.7094C31.0211 44.7094 31.0211 44.7094 30.975 44.7094C30.8828 44.7555 30.7906 44.8016 30.6984 44.8016H30.6523C30.5602 44.8477 30.468 44.8477 30.3758 44.8477C30.3297 44.8477 30.3297 44.8477 30.2836 44.8477C30.1914 44.8477 30.0992 44.8938 30.007 44.8938C29.9609 44.8938 29.9609 44.8938 29.9148 44.8938C29.7766 44.8938 29.6844 44.8938 29.5461 44.8938C27.518 44.8938 25.8586 43.2344 25.8586 41.2063V40.9297C27.3797 41.6211 28.6703 41.7594 29.5461 41.7594C30.4219 41.7594 31.7125 41.6211 33.2336 40.9297V41.2985C33.1875 41.3906 33.1414 41.6672 33.1414 41.8977ZM44.3422 25.811C44.1578 26.0414 43.9273 26.318 43.5125 26.4563C43.743 25.4422 43.9273 24.336 44.0195 23.3219C44.25 23.4602 44.4344 23.6446 44.5266 23.9211C44.8031 24.4742 44.757 25.2578 44.3422 25.811ZM14.2891 19.0352L16.2711 18.4821V16.8227C16.2711 12.1211 18.8063 7.78831 22.7703 5.43752V10.9688H24.6141V3.87034C24.6141 3.59377 24.8445 3.36331 25.1211 3.36331H28.5781V13.9649H30.4219V3.36331H33.8789C34.1555 3.36331 34.3859 3.59377 34.3859 3.87034V10.9227H36.2297V5.39143C40.2398 7.74221 42.7289 12.075 42.7289 16.7766V18.436L44.7109 18.9891V20.1875H14.2891V19.0352ZM14.6578 25.811C14.243 25.2578 14.1969 24.4742 14.4734 23.9211C14.6117 23.6906 14.75 23.4602 14.9805 23.3219C15.0727 24.4742 15.3031 25.4883 15.5336 26.4563C15.1188 26.318 14.8422 26.0414 14.6578 25.811ZM17.6539 27.1938C17.2391 25.6727 16.8242 24.0594 16.732 22.0774H42.268C42.2219 23.5524 41.8992 25.7649 41.3922 27.1477C37.2438 38.7172 31.7125 39.9617 29.5 39.9617C27.3336 40.0078 21.8023 38.7633 17.6539 27.1938ZM45.6328 56.5094H41.4844V55.1266H39.6406V56.5094H19.3594V55.1266H17.5156V56.5094H13.3672V50.1946C13.3672 48.7657 14.1969 47.475 15.4414 46.8758L24.1531 42.6813C24.1531 42.7274 24.1992 42.7735 24.1992 42.8196C24.1992 42.8657 24.2453 42.9578 24.2453 43.0039C24.2914 43.0961 24.3375 43.2344 24.3836 43.3266C24.3836 43.3727 24.4297 43.4188 24.4297 43.4649C24.4758 43.6031 24.568 43.7414 24.6141 43.8336C24.6141 43.8336 24.6141 43.8797 24.6602 43.8797C24.7523 44.018 24.8445 44.1563 24.9367 44.2946C24.9828 44.3406 24.9828 44.3867 25.0289 44.4328C25.075 44.525 25.1672 44.6172 25.2594 44.7094C25.3055 44.7555 25.3516 44.8016 25.3977 44.8477C25.4437 44.9399 25.5359 44.986 25.6281 45.0781C25.6742 45.1242 25.7203 45.1703 25.7664 45.2164C25.8586 45.3086 25.9047 45.3547 25.9969 45.4469C26.043 45.493 26.0891 45.5391 26.1352 45.5852C26.2273 45.6774 26.3195 45.7235 26.4117 45.8157C26.4578 45.8617 26.5039 45.8617 26.5039 45.9078C26.6422 46 26.7805 46.0922 26.9188 46.1844C26.9648 46.1844 26.9648 46.2305 27.0109 46.2305C27.1492 46.2766 27.2414 46.3688 27.3797 46.4149C27.4258 46.461 27.4719 46.461 27.5641 46.461C27.6562 46.5071 27.7484 46.5532 27.8867 46.5532C27.9328 46.5532 28.025 46.5992 28.0711 46.5992C28.1633 46.6453 28.3016 46.6453 28.3937 46.6914C28.4398 46.6914 28.532 46.7375 28.5781 46.7375C28.6703 46.7375 28.8086 46.7836 28.9469 46.7836C28.993 46.7836 29.0391 46.7836 29.1313 46.7836C29.3156 46.7836 29.5 46.8297 29.6383 46.8297C29.8227 46.8297 29.9609 46.8297 30.1453 46.8297C30.2375 46.8297 30.3297 46.8297 30.3758 46.7836C30.468 46.7836 30.5141 46.7836 30.6063 46.7375C30.6984 46.7375 30.8367 46.6914 30.9289 46.6453C30.975 46.6453 31.0211 46.6453 31.0672 46.5992C31.2055 46.5532 31.2977 46.5071 31.4359 46.5071C31.482 46.5071 31.482 46.5071 31.5281 46.461C31.6664 46.4149 31.8047 46.3688 31.8969 46.3227H31.943C32.0813 46.2766 32.2195 46.1844 32.3117 46.1383C32.45 46.0461 32.5422 46 32.6805 45.9078C32.8188 45.8157 32.9109 45.7696 33.0031 45.6774C33.0031 45.6774 33.0492 45.6774 33.0492 45.6313C33.1414 45.5391 33.2336 45.4469 33.3258 45.4008L33.3719 45.3547C33.4641 45.2625 33.5102 45.2164 33.6023 45.1242C33.6484 45.0782 33.6945 45.0321 33.6945 44.986C33.7406 44.9399 33.7867 44.8477 33.8789 44.8016C33.925 44.7094 34.0172 44.6633 34.0633 44.5711C34.1094 44.525 34.1094 44.4789 34.1555 44.4789C34.5242 43.9719 34.8008 43.3727 34.9391 42.7274L43.6047 46.9219C44.8953 47.5211 45.6789 48.8578 45.6789 50.2407V56.5094H45.6328Z" fill="#7092B9"/>
<path d="M39.4102 16.8688H19.5898V18.7125H39.4102V16.8688Z" fill="#7092B9"/>
</g>
<defs>
<clipPath id="clip0">
<rect width="59" height="59" fill="white" transform="translate(0 0.275024)"/>
</clipPath>
</defs>
</svg>
