<svg width="59" height="60" viewBox="0 0 59 60" fill="none" xmlns="http://www.w3.org/2000/svg">
<g clip-path="url(#clip0)">
<path d="M13.5791 39.8235C13.9433 40.1791 14.3638 40.4719 14.8237 40.69C14.9788 43.761 15.6391 46.7853 16.778 49.6414C17.2588 50.7827 17.5095 52.0076 17.5155 53.246V56.5094C17.5155 57.2429 17.8069 57.9464 18.3256 58.465C18.8442 58.9837 19.5477 59.275 20.2812 59.275H31.3437C32.0771 59.275 32.7806 58.9837 33.2992 58.465C33.8179 57.9464 34.1093 57.2429 34.1093 56.5094C34.1106 54.9301 34.6504 53.3985 35.6396 52.1674L41.6594 44.6633C41.7608 44.5527 41.853 44.4328 41.9452 44.3222C42.0374 44.2116 42.1296 44.1286 42.2126 44.018C42.2955 43.9074 42.3877 43.7691 42.4707 43.64L42.7012 43.3082C42.7841 43.1699 42.8394 43.0316 42.9132 42.9025C42.9869 42.7735 43.0422 42.6628 43.0976 42.543C43.1529 42.4232 43.2174 42.248 43.2727 42.1005L43.411 41.741C43.411 41.5843 43.494 41.4275 43.5308 41.2616C43.5677 41.0957 43.5954 41.0311 43.623 40.9113C43.6507 40.7914 43.623 40.5702 43.6876 40.4043C43.7521 40.2383 43.6876 40.1738 43.7429 40.0539C43.7982 39.9341 43.7429 39.6668 43.7429 39.4732C43.7429 39.2796 43.7429 39.2888 43.7429 39.1874C43.7335 38.8971 43.7058 38.6076 43.6599 38.3208L43.5862 37.8783L42.6643 31.9046C42.5612 31.2685 42.3753 30.6486 42.1112 30.0608C42.0965 30.0222 42.0779 29.9851 42.0558 29.9502C41.2321 28.2088 39.7597 26.8588 37.9535 26.1889L35.0772 25.1657L38.2762 22.0313L41.4843 18.7125C41.5925 18.6079 41.7247 18.5313 41.8693 18.4895C42.014 18.4477 42.1666 18.442 42.314 18.4729C44.5731 18.9503 46.9291 18.5627 48.9161 17.3865C50.9031 16.2103 52.3764 14.3313 53.0446 12.1211C53.4088 10.9281 53.5249 9.6732 53.3857 8.43363C53.3463 8.08685 53.2094 7.75835 52.9907 7.48633C52.7721 7.21431 52.4807 7.00993 52.1505 6.89697C51.8203 6.784 51.4648 6.76707 51.1253 6.84816C50.7859 6.92925 50.4764 7.10502 50.2329 7.35504L47.6701 9.97316C47.5844 10.0596 47.4824 10.1282 47.3701 10.175C47.2577 10.2218 47.1372 10.2459 47.0155 10.2459C46.8938 10.2459 46.7733 10.2218 46.661 10.175C46.5487 10.1282 46.4467 10.0596 46.361 9.97316L43.7798 7.40113C43.6921 7.31281 43.6232 7.20765 43.5772 7.092C43.5313 6.97634 43.5092 6.85257 43.5124 6.72816C43.5117 6.60464 43.5358 6.48223 43.5833 6.36821C43.6308 6.25419 43.7008 6.15088 43.789 6.06441L46.361 3.44629C46.6068 3.2001 46.7778 2.8894 46.8545 2.5501C46.9312 2.2108 46.9103 1.85673 46.7943 1.52879C46.6768 1.20761 46.4724 0.925436 46.2037 0.713795C45.9351 0.502155 45.6129 0.369393 45.2732 0.330351C44.033 0.200482 42.7793 0.319582 41.5857 0.680663C39.3859 1.358 37.5191 2.83372 36.3523 4.8177C35.1854 6.80168 34.803 9.15039 35.2801 11.4021C35.3146 11.5544 35.3099 11.7129 35.2663 11.8629C35.2228 12.0128 35.1419 12.1493 35.0312 12.2594L29.6658 17.5141C29.2405 16.9541 28.664 16.5273 28.0041 16.2842C27.3442 16.041 26.6286 15.9916 25.9416 16.1418C25.2546 16.292 24.6249 16.6355 24.1267 17.1318C23.6284 17.6281 23.2826 18.2566 23.1298 18.943C22.5812 18.7876 22.0041 18.7616 21.4437 18.8669C20.8834 18.9722 20.3551 19.2061 19.9004 19.55C19.4457 19.8939 19.0769 20.3386 18.8231 20.8491C18.5692 21.3597 18.4372 21.9221 18.4374 22.4922C18.4346 22.9299 18.5127 23.3644 18.6679 23.7736H18.4466C17.8704 23.8658 17.3242 24.0934 16.853 24.4377C16.3819 24.7821 15.9992 25.2333 15.7364 25.7544C15.4736 26.2755 15.3382 26.8515 15.3414 27.4351C15.3446 28.0186 15.4863 28.5931 15.7548 29.1113C14.8406 29.3971 14.0735 30.0274 13.6158 30.8687C13.1582 31.7101 13.0458 32.6965 13.3026 33.6193C12.5751 34.5 12.2006 35.6196 12.2517 36.7608C12.3028 37.902 12.7758 38.9836 13.5791 39.7958V39.8235ZM14.3443 35.3708L14.5102 35.4907C14.599 35.5752 14.6946 35.6523 14.796 35.7211C14.9769 35.8449 15.1681 35.9529 15.3676 36.0438L19.0551 37.6294C19.219 37.7015 19.3886 37.76 19.5621 37.8046L18.8154 38.5421C18.6982 38.6539 18.5717 38.7557 18.4374 38.8463L18.3083 38.9293L18.0041 39.086L17.8382 39.1597L17.4879 39.2611H17.2205H17.073C16.7178 39.2814 16.3618 39.2377 16.0221 39.1321C15.6156 39.0027 15.2459 38.7784 14.9435 38.4775C14.5373 38.0732 14.2668 37.5526 14.1694 36.9878C14.0719 36.423 14.1524 35.8418 14.3996 35.3247L14.3443 35.3708ZM39.1243 29.0375C40.0186 29.8764 40.6088 30.9887 40.8021 32.1996L41.8438 38.6527C41.879 38.8693 41.9005 39.0879 41.9083 39.3072C41.9374 40.0679 41.811 40.8265 41.5367 41.5367C41.2625 42.2468 40.8463 42.8935 40.3135 43.4372L40.249 43.5018L34.2015 50.9782C32.9401 52.5449 32.2565 54.4981 32.2655 56.5094C32.2655 56.7539 32.1684 56.9884 31.9955 57.1613C31.8226 57.3342 31.5882 57.4313 31.3437 57.4313H20.2812C20.0367 57.4313 19.8022 57.3342 19.6293 57.1613C19.4564 56.9884 19.3593 56.7539 19.3593 56.5094V53.246C19.3423 51.7608 19.0289 50.294 18.4374 48.9316C17.4449 46.4486 16.8416 43.8273 16.649 41.1602H16.8057C16.9973 41.1555 17.1883 41.137 17.3773 41.1049C17.454 41.1094 17.531 41.1094 17.6077 41.1049C17.8274 41.0649 18.0433 41.0064 18.253 40.9297L18.4835 40.8652C18.7159 40.7682 18.9408 40.6542 19.1565 40.5241L19.304 40.4504C19.565 40.2809 19.8089 40.0863 20.0323 39.8696L25.204 34.79C25.7993 34.6281 26.3404 34.3098 26.7712 33.8682L26.8265 33.8221C26.9618 33.6828 27.0881 33.535 27.2044 33.3796C27.5052 32.9682 27.7128 32.4964 27.8129 31.9968C28.1009 32.0016 28.3885 31.9738 28.6702 31.9138C29.339 32.5684 30.1452 33.066 31.0302 33.3704L33.2243 34.2093C33.4692 34.2949 33.6853 34.4474 33.8482 34.6494C34.0111 34.8514 34.1143 35.0949 34.1462 35.3524C34.1805 35.6684 34.1085 35.9868 33.9415 36.2573C33.7746 36.5278 33.5222 36.7349 33.2243 36.8458C28.283 38.6896 25.4898 41.8608 24.9274 46.2397C24.8902 46.4805 24.9498 46.7261 25.0932 46.923C25.2366 47.1199 25.4521 47.2521 25.6926 47.2907H25.8124C26.0375 47.2926 26.2555 47.2121 26.4253 47.0643C26.5951 46.9166 26.705 46.7118 26.7343 46.4886C27.2321 42.8011 29.5644 40.2014 33.8696 38.5882C34.5497 38.3254 35.1234 37.8443 35.5005 37.2203C35.8775 36.5962 36.0367 35.8646 35.953 35.1404C35.8792 34.5637 35.6508 34.0177 35.2922 33.5601C34.9336 33.1024 34.458 32.7502 33.9157 32.5407L31.694 31.6188C30.8934 31.3398 30.1852 30.8453 29.6474 30.1899C29.5295 30.0491 29.4246 29.8979 29.334 29.7382C29.2787 29.6552 29.2233 29.5722 29.1772 29.4893C29.0783 29.3176 28.992 29.1389 28.9191 28.9546C28.873 28.8347 28.8269 28.7149 28.7901 28.5858C28.7532 28.4568 28.7255 28.3554 28.6979 28.2447C28.6702 28.1341 28.6518 27.9682 28.6333 27.8299C28.6243 27.7102 28.6243 27.59 28.6333 27.4704C28.6287 27.4336 28.6287 27.3965 28.6333 27.3597C28.6195 27.191 28.6195 27.0214 28.6333 26.8527C28.6288 26.7913 28.6288 26.7297 28.6333 26.6683C28.6283 26.6193 28.6283 26.5699 28.6333 26.5208C28.6698 26.2642 28.7284 26.0113 28.8085 25.7649C28.8864 25.5365 29.0507 25.3478 29.2661 25.2393C29.4816 25.1307 29.731 25.1109 29.9608 25.1841L37.2621 27.9313C37.9481 28.1769 38.5804 28.5525 39.1243 29.0375ZM36.2941 13.5316C36.6173 13.2068 36.8548 12.8068 36.9851 12.3675C37.1155 11.9282 37.1346 11.4634 37.0408 11.0149C36.7982 9.90329 36.8235 8.74993 37.1146 7.65004C37.4237 6.4297 38.0426 5.30984 38.9115 4.39894C39.7805 3.48803 40.8699 2.81694 42.0743 2.45066C43.0363 2.14973 44.051 2.05548 45.0519 2.1741L42.4799 4.79223C42.2221 5.04916 42.0175 5.35447 41.8779 5.69063C41.7383 6.0268 41.6665 6.38722 41.6665 6.75121C41.6665 7.11521 41.7383 7.47562 41.8779 7.81179C42.0175 8.14795 42.2221 8.45326 42.4799 8.71019L45.0888 11.3375C45.6169 11.8408 46.3183 12.1216 47.0478 12.1216C47.7773 12.1216 48.4787 11.8408 49.0068 11.3375L51.6249 8.67332C51.7332 9.66464 51.6423 10.6676 51.3576 11.6233C50.995 12.8454 50.318 13.9509 49.3943 14.8293C48.4705 15.7078 47.3324 16.3284 46.0937 16.6291C44.9851 16.9251 43.8216 16.9503 42.7012 16.7029C42.2512 16.6075 41.7846 16.6258 41.3436 16.7562C40.9025 16.8866 40.501 17.1249 40.1752 17.4496L33.6299 23.9027V23.8474C33.5489 23.6054 33.4407 23.3735 33.3073 23.156L30.6983 19.0905L36.2941 13.5316ZM25.7479 18.141C25.9525 18.0114 26.1806 17.9234 26.4192 17.882C26.6578 17.8406 26.9022 17.8466 27.1385 17.8997C27.3747 17.9528 27.5982 18.0519 27.7962 18.1914C27.9942 18.3308 28.1627 18.5079 28.2923 18.7125L28.744 19.4224L31.5096 23.7921L30.5877 23.451C30.2445 23.3313 29.8808 23.2819 29.5181 23.3056C29.1555 23.3294 28.8013 23.4258 28.4766 23.5893C28.3874 23.636 28.3012 23.6884 28.2185 23.746L24.9458 20.1046C24.8652 19.7372 24.8988 19.354 25.0422 19.0064C25.1855 18.6587 25.4318 18.3631 25.7479 18.1594V18.141ZM20.8251 21.1739C20.9966 20.9997 21.2011 20.8614 21.4266 20.767C21.6522 20.6725 21.8942 20.6239 22.1387 20.6239C22.3832 20.6239 22.6253 20.6725 22.8508 20.767C23.0764 20.8614 23.2808 20.9997 23.4524 21.1739L27.0662 25.2025C27.0201 25.35 26.9832 25.4975 26.9371 25.6543C26.5761 27.0796 26.7127 28.5854 27.3243 29.9225L22.3001 25.2302L20.8251 23.7552C20.4817 23.4097 20.2889 22.9424 20.2889 22.4554C20.2889 21.9683 20.4817 21.501 20.8251 21.1555V21.1739ZM17.5155 26.3641C17.8019 25.9684 18.2335 25.7024 18.7157 25.6246C19.198 25.5468 19.6913 25.6636 20.0876 25.9493L21.0094 26.6499L26.0337 31.3238C26.0055 31.6563 25.8876 31.9749 25.6926 32.2457C25.6323 32.3286 25.5644 32.4058 25.4898 32.4761C25.2303 32.7076 24.9107 32.861 24.5679 32.9186C24.2355 32.9861 23.891 32.9606 23.5723 32.8449L18.5849 29.3418L17.8935 28.8347C17.5317 28.5456 17.292 28.131 17.222 27.6732C17.152 27.2155 17.2568 26.7481 17.5155 26.3641ZM15.1279 31.8954C15.2718 31.5655 15.5091 31.2851 15.8105 31.0885C16.1119 30.8919 16.4643 30.7878 16.8241 30.7891C17.0775 30.7871 17.3285 30.8373 17.5616 30.9366H17.6354L22.3001 34.2093C22.3013 34.4527 22.2543 34.6939 22.1618 34.9191C22.0813 35.1489 21.9547 35.3597 21.7899 35.5389C21.625 35.718 21.4253 35.8616 21.203 35.9608C20.7515 36.1478 20.2441 36.1478 19.7926 35.9608L16.1051 34.366C15.9977 34.3187 15.8957 34.26 15.8008 34.1908C15.5671 34.0046 15.3781 33.7683 15.2477 33.4994L15.1924 33.398C15.0836 33.1686 15.0233 32.9191 15.0154 32.6653C15.0074 32.4115 15.052 32.1588 15.1463 31.923L15.1279 31.8954Z" fill="#7092B9"/>
</g>
<defs>
<clipPath id="clip0">
<rect width="59" height="59" fill="white" transform="translate(0 0.275024)"/>
</clipPath>
</defs>
</svg>
