<svg width="59" height="60" viewBox="0 0 59 60" fill="none" xmlns="http://www.w3.org/2000/svg">
<path fill-rule="evenodd" clip-rule="evenodd" d="M26.0285 26.3842C25.6699 26.7427 25.6699 27.3222 26.0285 27.6807L31.5301 33.1824C31.7089 33.3612 31.9437 33.451 32.1784 33.451C32.4131 33.451 32.6479 33.3612 32.8267 33.1824C33.1852 32.8239 33.1852 32.2443 32.8267 31.8858L27.325 26.3842C26.9665 26.0257 26.387 26.0257 26.0285 26.3842ZM23.6572 30.0519C23.2987 29.6934 22.7192 29.6934 22.3607 30.0519C22.0022 30.4105 22.0022 30.99 22.3607 31.3485L27.8623 36.8501C28.0411 37.029 28.2759 37.1188 28.5106 37.1188C28.7454 37.1188 28.9801 37.029 29.1589 36.8501C29.5174 36.4916 29.5174 35.9121 29.1589 35.5536L23.6572 30.0519ZM19.9895 33.7197C19.631 33.3612 19.0514 33.3612 18.6929 33.7197C18.3344 34.0782 18.3344 34.6577 18.6929 35.0163L24.1946 40.5179C24.3734 40.6967 24.6081 40.7866 24.8429 40.7866C25.0776 40.7866 25.3123 40.6967 25.4911 40.5179C25.8497 40.1594 25.8497 39.5799 25.4911 39.2214L19.9895 33.7197ZM37.3004 31.6172L27.5937 21.9104L14.2192 35.2849L23.9259 44.9917L37.3004 31.6172ZM28.242 19.9656L39.2453 30.9689C39.6038 31.3274 39.6038 31.9069 39.2453 32.2654L24.5742 46.9365C24.3954 47.1153 24.1606 47.2052 23.9259 47.2052C23.6912 47.2052 23.4564 47.1153 23.2776 46.9365L12.2743 35.9332C11.9158 35.5747 11.9158 34.9952 12.2743 34.6367L26.9454 19.9656C27.3039 19.6071 27.8834 19.6071 28.242 19.9656ZM49.5774 35.8122C49.1391 35.5545 48.5779 35.7021 48.3221 36.1395L37.8121 54.0657C37.0528 55.3797 35.3666 55.8318 34.0939 55.0982L32.0463 53.7714C31.6227 53.4954 31.0542 53.6173 30.7791 54.0419C30.5031 54.4673 30.6242 55.0349 31.0496 55.31L33.1366 56.6625C33.8564 57.0779 34.644 57.275 35.4216 57.275C37.007 57.275 38.5502 56.4544 39.3965 54.9882L49.9038 37.0665C50.1596 36.6301 50.0138 36.0689 49.5774 35.8122ZM56.9358 6.85973V21.5308C56.9358 24.3678 56.0335 26.4814 53.9163 28.5977L26.685 55.8675C25.8185 56.734 24.6668 57.2099 23.4418 57.2099C22.2167 57.2099 21.066 56.734 20.2013 55.8675L3.34332 39.0105C2.47681 38.144 2 36.9923 2 35.7672C2 34.5422 2.47681 33.3914 3.34332 32.5258L27.16 8.7413C20.9321 7.32554 17.0672 7.23018 15.9357 7.56119C16.4134 8.04992 17.9016 9.0879 21.4933 10.5037C21.9646 10.6898 22.1956 11.2216 22.0104 11.6929C21.8243 12.1642 21.2915 12.3926 20.8211 12.2101C13.3866 9.27954 13.8212 7.65472 13.9853 7.04312C14.3255 5.76857 16.142 5.34403 19.8629 5.66954C22.8934 5.93454 26.8051 6.68185 30.8772 7.77209C34.9494 8.86325 38.7088 10.1717 41.4652 11.4582C44.8533 13.0381 46.2113 14.3117 45.8692 15.5872C45.5391 16.8177 43.8235 16.9681 43.2596 17.0176C43.233 17.0204 43.2055 17.0213 43.1789 17.0213C42.7085 17.0213 42.3088 16.6609 42.2666 16.1841C42.2216 15.6798 42.5948 15.2351 43.1001 15.1911C43.4907 15.1571 43.7502 15.104 43.918 15.0563C43.5255 14.6464 42.5325 14.0073 40.9443 13.2462C40.6115 13.8074 40.4309 14.452 40.4309 15.1122C40.4309 17.135 42.0759 18.78 44.0986 18.78C46.1214 18.78 47.7664 17.135 47.7664 15.1122C47.7664 13.0894 46.1214 11.4444 44.0986 11.4444C43.5916 11.4444 43.1817 11.0346 43.1817 10.5275C43.1817 10.0204 43.5916 9.61056 44.0986 9.61056C47.1328 9.61056 49.6003 12.078 49.6003 15.1122C49.6003 18.1464 47.1328 20.6139 44.0986 20.6139C41.0645 20.6139 38.597 18.1464 38.597 15.1122C38.597 14.1925 38.8391 13.2967 39.2709 12.4971C37.0767 11.5756 34.1333 10.544 30.4032 9.54362C30.0098 9.43817 29.6311 9.34189 29.2524 9.24562L4.63988 33.8233C4.11997 34.3423 3.83388 35.0337 3.83388 35.7672C3.83388 36.5026 4.11997 37.1931 4.63988 37.713L21.4978 54.571C22.5367 55.6099 24.3486 55.6099 25.3875 54.571L52.6189 27.3011C54.406 25.5149 55.1019 23.8965 55.1019 21.5308V6.85973C55.1019 5.34311 53.8677 4.10891 52.3511 4.10891H37.68C35.3143 4.10891 33.6959 4.80487 31.9097 6.59107C31.5512 6.94959 30.9717 6.94959 30.6132 6.59107C30.2546 6.23255 30.2546 5.65304 30.6132 5.29451C32.7295 3.1773 34.843 2.27502 37.68 2.27502H52.3511C54.8791 2.27502 56.9358 4.33172 56.9358 6.85973Z" fill="#7092B9"/>
</svg>
