<svg width="52" height="45" viewBox="0 0 52 45" fill="none" xmlns="http://www.w3.org/2000/svg">
<path d="M50.3499 12.8571C50.3949 13.0058 50.3499 12.8435 50.3499 12.8571V12.8571ZM50.3499 20.8929V12.8571C50.3499 11.9692 49.6307 11.25 48.7427 11.25V0.803571C48.7427 0.36 48.3827 0 47.9392 0H6.95701C3.40684 0 0.528442 2.87839 0.528442 6.42857C0.528442 6.64554 0.539692 6.86009 0.560585 7.07143C0.549335 7.12527 0.528442 7.17509 0.528442 7.23214V38.5714C0.528442 42.1216 3.40684 45 6.95701 45H48.7427C49.6307 45 50.3499 44.2808 50.3499 43.3929V35.3571C51.2378 35.3571 51.957 34.6379 51.957 33.75V22.5C51.957 21.6121 51.237 20.8929 50.3499 20.8929ZM6.95701 1.60714H47.1356V11.25H45.5284V4.82143C45.5284 3.93348 44.8084 3.21429 43.9213 3.21429H6.95701C6.06907 3.21429 5.34987 3.93348 5.34987 4.82143V10.9696C3.47835 10.3074 2.13559 8.5267 2.13559 6.42857C2.13559 3.76554 4.29398 1.60714 6.95701 1.60714ZM6.95701 6.42857V4.82143H43.9213V6.42857H6.95701ZM43.9213 8.03571V11.25H6.95701V8.03571H43.9213ZM48.7427 43.3929H6.95701C4.29398 43.3929 2.13559 41.2345 2.13559 38.5714V10.6706C3.31362 12.0086 5.03407 12.8571 6.95701 12.8571H48.7427V20.8929H44.7249C40.7303 20.8929 37.4927 24.1304 37.4927 28.125C37.4927 32.1196 40.7303 35.3571 44.7249 35.3571H48.7427V43.3929ZM50.3499 33.75H44.7249C41.6183 33.75 39.0999 31.2316 39.0999 28.125C39.0999 25.0184 41.6183 22.5 44.7249 22.5H50.3499V33.75ZM42.3142 28.125C42.3142 29.4565 43.3934 30.5357 44.7249 30.5357C46.0564 30.5357 47.1356 29.4565 47.1356 28.125C47.1356 26.7935 46.0564 25.7143 44.7249 25.7143C43.3934 25.7143 42.3142 26.7935 42.3142 28.125ZM45.5284 28.125C45.5284 28.5686 45.1684 28.9286 44.7249 28.9286C44.2813 28.9286 43.9213 28.5686 43.9213 28.125C43.9213 27.6814 44.2813 27.3214 44.7249 27.3214C45.1684 27.3214 45.5284 27.6814 45.5284 28.125Z" fill="#7092B9"/>
</svg>
