<svg width="59" height="60" viewBox="0 0 59 60" fill="none" xmlns="http://www.w3.org/2000/svg">
<g clip-path="url(#clip0)">
<path d="M34.5315 59.275L30.2812 49.2671L32.4188 48.3604L35.2432 55.0135L39.4266 50.3665L45.6761 50.5864L43.3754 45.1654L45.513 44.2587L49.235 53.0346L40.4262 52.724L34.5315 59.275Z" fill="#7092B9"/>
<path d="M24.4748 59.2682L18.4655 52.8214L9.66357 53.285L13.6497 43.4109L15.8032 44.279L13.1794 50.7757L19.4244 50.4459L23.6882 55.0202L26.4911 48.0805L28.6423 48.9509L24.4748 59.2682Z" fill="#7092B9"/>
<path d="M29.4379 51.152C28.2932 51.152 27.4794 50.3053 26.7608 49.5573C26.4741 49.2581 25.9924 48.7571 25.7895 48.7038C25.539 48.705 24.9735 49.0087 24.5598 49.2298C23.8344 49.6174 23.0852 50.0186 22.2669 50.0186C22.0266 50.0186 21.7943 49.9835 21.5756 49.9121C20.4932 49.5596 19.9854 48.5067 19.5366 47.5784C19.353 47.1998 19.0481 46.5674 18.8667 46.4541C18.8611 46.4541 18.1516 46.4654 17.5463 46.572C17.059 46.6592 16.5558 46.7487 16.0582 46.7487C15.4212 46.7487 14.9067 46.5991 14.485 46.2931C13.5726 45.6279 13.414 44.4752 13.2734 43.4573C13.2145 43.0369 13.1182 42.3331 12.9776 42.1698C12.8189 42.0338 12.1151 41.9375 11.6946 41.8797C10.6768 41.7392 9.52415 41.5805 8.85887 40.6681C8.19582 39.758 8.39985 38.6133 8.57891 37.6022C8.65373 37.1818 8.77952 36.4779 8.69452 36.2796C8.5857 36.1062 7.951 35.799 7.57247 35.6154C6.64306 35.1666 5.59015 34.6565 5.23994 33.5764C4.89313 32.511 5.44055 31.4899 5.92225 30.5888C6.12625 30.2069 6.46852 29.5687 6.44585 29.3523C6.39485 29.1596 5.89276 28.6768 5.59354 28.3889C4.84663 27.6703 4 26.8565 4 25.7129C4 24.5693 4.84663 23.7556 5.59354 23.0381C5.89389 22.7491 6.39485 22.2674 6.44813 22.0634C6.46852 21.8583 6.12625 21.2202 5.92225 20.8393C5.43941 19.9371 4.89199 18.916 5.24105 17.8494C5.58901 16.7727 6.64195 16.2616 7.57133 15.8116C7.951 15.628 8.58459 15.3208 8.69677 15.1395C8.77837 14.9491 8.65259 14.2441 8.57778 13.8236C8.3987 12.8138 8.1947 11.6702 8.85659 10.7601C9.5219 9.84766 10.6746 9.68899 11.6923 9.54845C12.1128 9.49067 12.8178 9.39317 12.981 9.25264C13.1159 9.0951 13.2134 8.39012 13.2712 7.96963C13.4117 6.95186 13.5715 5.79806 14.485 5.13389C14.9055 4.82672 15.4201 4.67826 16.0593 4.67826C16.5569 4.67826 17.0612 4.7678 17.5475 4.85394C18.1686 4.96387 18.8701 4.97182 18.8735 4.9684C19.0447 4.86073 19.3518 4.22717 19.5354 3.84749C19.9843 2.91922 20.4932 1.86517 21.5744 1.51497C21.7932 1.44354 22.0266 1.40729 22.2669 1.40729C23.0852 1.40729 23.8355 1.80964 24.5609 2.19727C24.9735 2.41827 25.5402 2.7209 25.7907 2.7209C25.9924 2.66988 26.4741 2.16892 26.7608 1.86971C27.4794 1.12169 28.2932 0.275024 29.4379 0.275024C30.5826 0.275024 31.3964 1.12169 32.1138 1.86857C32.4017 2.16892 32.8834 2.66988 33.0874 2.72316C33.3357 2.7209 33.9012 2.41827 34.3138 2.19838C35.0392 1.80964 35.7895 1.40843 36.6078 1.40843C36.8492 1.40843 37.0826 1.44468 37.3025 1.5161C38.3827 1.86746 38.8916 2.92037 39.3415 3.84863C39.524 4.22717 39.83 4.85961 40.0113 4.97294C40.017 4.97294 40.7254 4.96276 41.3317 4.85508C41.818 4.7678 42.3212 4.67826 42.8199 4.67826C43.4569 4.67826 43.9726 4.82787 44.393 5.13389C45.3055 5.7992 45.4642 6.95186 45.6047 7.96963C45.6636 8.39012 45.7599 9.09511 45.9004 9.25717C46.0592 9.39317 46.7641 9.49067 47.1846 9.54845C48.2024 9.68899 49.3551 9.8488 50.0181 10.7612C50.6811 11.6691 50.4782 12.8138 50.2981 13.8236C50.2232 14.2453 50.0986 14.9502 50.1836 15.1486C50.2924 15.3208 50.9259 15.628 51.3045 15.8116C52.2339 16.2604 53.2868 16.7705 53.637 17.8517C53.9827 18.916 53.4364 19.936 52.9547 20.8371C52.7507 21.2179 52.4084 21.8571 52.4311 22.0736C52.4821 22.2674 52.983 22.7491 53.2834 23.0381C54.0303 23.7556 54.877 24.5693 54.877 25.7129C54.877 26.8577 54.0303 27.6726 53.2823 28.39C52.983 28.6779 52.4821 29.1596 52.4288 29.3636C52.4084 29.5699 52.7496 30.208 52.9547 30.5899C53.4364 31.491 53.9827 32.511 53.637 33.5764C53.2868 34.6577 52.2327 35.1677 51.3033 35.6166C50.9259 35.799 50.2935 36.105 50.1802 36.2853C50.0974 36.4779 50.2232 37.1852 50.2981 37.6067C50.4771 38.6166 50.68 39.7591 50.0181 40.6681C49.3528 41.5816 48.1978 41.7402 47.179 41.8808C46.7596 41.9386 46.0569 42.0349 45.8948 42.1744C45.7588 42.3331 45.6613 43.0381 45.6035 43.4585C45.463 44.4752 45.3043 45.6279 44.393 46.2943C43.9692 46.6014 43.4558 46.7487 42.8211 46.7487C42.3224 46.7487 41.8191 46.6592 41.3307 46.5731C40.7095 46.4609 40.008 46.4574 40.0046 46.4574C39.83 46.5663 39.5229 47.1998 39.3404 47.5784C38.8904 48.5067 38.3815 49.5596 37.3003 49.9121C37.0804 49.9835 36.848 50.0186 36.6078 50.0186C35.7906 50.0186 35.0414 49.6174 34.3161 49.2298C33.9035 49.0087 33.338 48.705 33.0874 48.705C32.8823 48.7571 32.3995 49.2592 32.1116 49.5596C31.3941 50.3053 30.5815 51.152 29.4379 51.152ZM25.7895 46.3838C25.9142 46.3838 26.0366 46.394 26.1579 46.4133C27.1031 46.5629 27.8104 47.2995 28.4349 47.949C28.7284 48.255 29.2146 48.7605 29.4379 48.8274C29.66 48.7605 30.1451 48.2562 30.4376 47.9512C31.0632 47.2995 31.7727 46.5617 32.7191 46.4133C33.6485 46.2636 34.5688 46.7317 35.4121 47.1828C35.7951 47.388 36.3732 47.6974 36.6078 47.6974C36.7495 47.6033 37.0634 46.955 37.2504 46.5674C37.6448 45.7525 38.0925 44.8287 38.9505 44.389C39.6838 44.0127 40.7583 44.1113 41.7387 44.287C42.3768 44.4003 43.0466 44.4026 43.05 44.4037C43.1475 44.2723 43.2449 43.5639 43.3038 43.1412C43.4285 42.2389 43.5691 41.2155 44.257 40.5298C44.9405 39.8464 45.9617 39.7058 46.8627 39.5811C47.2855 39.5233 47.9938 39.4258 48.156 39.2842C48.2103 39.1267 48.0868 38.4296 48.012 38.0126C47.8533 37.1137 47.6731 36.096 48.1151 35.2278C48.5526 34.3687 49.4775 33.921 50.2935 33.5265C50.68 33.3395 51.3272 33.0267 51.4371 32.8408C51.4382 32.6754 51.1062 32.0554 50.9078 31.6859C50.476 30.8779 49.9852 29.9632 50.1371 28.9953C50.2879 28.0489 51.0246 27.3405 51.674 26.7171C51.9675 26.4349 52.5138 25.9101 52.5569 25.6959C52.5127 25.5169 51.9879 25.0125 51.6751 24.711C51.0246 24.0865 50.2879 23.3793 50.1382 22.434C49.9852 21.4638 50.476 20.5492 50.9078 19.7411C51.1062 19.3716 51.4382 18.7516 51.4223 18.5397C51.3272 18.4014 50.68 18.0875 50.2935 17.9004C49.4786 17.506 48.5549 17.0595 48.1163 16.2026C47.6731 15.3333 47.8533 14.3155 48.0131 13.4179C48.0868 13.0008 48.2115 12.3026 48.1287 12.1054C47.9938 12.0034 47.2889 11.9059 46.8673 11.8481C45.9651 11.7234 44.9428 11.5829 44.2559 10.8961C43.5713 10.2104 43.4296 9.18917 43.3061 8.28698C43.2484 7.87556 43.1542 7.19214 43.0182 7.00854C43.0137 7.00854 42.9469 6.99946 42.8199 6.99946C42.5264 6.99946 42.1432 7.06746 41.7375 7.14C40.7605 7.31453 39.6861 7.41428 38.9516 7.038C38.0925 6.59822 37.646 5.67452 37.2515 4.85961C37.0645 4.47312 36.7517 3.82595 36.5647 3.716C36.3709 3.7296 35.8144 4.0277 35.4087 4.24416C34.5677 4.69412 33.6508 5.15882 32.7213 5.01489C31.7738 4.86415 31.0655 4.12744 30.441 3.478C30.1395 3.16404 29.6351 2.63929 29.4209 2.59509C29.2407 2.63929 28.7364 3.16404 28.4349 3.478C27.8104 4.12744 27.1031 4.86415 26.1579 5.01375C25.2103 5.16336 24.3082 4.69412 23.4649 4.24416C23.0592 4.02656 22.5038 3.72849 22.2669 3.72849C22.1253 3.82482 21.8113 4.47198 21.6243 4.85847C21.2299 5.67452 20.7833 6.59822 19.9265 7.03686C19.1875 7.41314 18.1187 7.31228 17.1417 7.14C16.5013 7.02554 15.8315 7.02325 15.8281 7.02325C15.7272 7.15814 15.6286 7.86537 15.5708 8.28698C15.4461 9.18917 15.3056 10.2104 14.6199 10.8961C13.9342 11.5829 12.9119 11.7234 12.0097 11.8481C11.5869 11.9059 10.8797 12.0045 10.7176 12.1451C10.6644 12.3015 10.7891 12.9996 10.8627 13.4167C11.0225 14.3144 11.2039 15.3322 10.7618 16.1992C10.3221 17.0583 9.39837 17.506 8.58345 17.9004C8.19696 18.0875 7.5498 18.4014 7.43987 18.5884C7.43872 18.755 7.7708 19.3727 7.96801 19.7422C8.40096 20.5492 8.89059 21.4638 8.73985 22.4306C8.58913 23.3793 7.8524 24.0865 7.20184 24.711C6.88903 25.0125 6.36425 25.5169 6.32007 25.7299C6.36425 25.909 6.88903 26.4145 7.20184 26.716C7.8524 27.3405 8.58913 28.0489 8.73873 28.993C8.89059 29.9632 8.40096 30.8779 7.96915 31.6837C7.7708 32.0543 7.43872 32.6743 7.45345 32.8873C7.5498 33.0256 8.19696 33.3395 8.58345 33.5265C9.39837 33.921 10.3232 34.3687 10.763 35.2266C11.205 36.0937 11.0248 37.1115 10.8638 38.0091C10.7902 38.4274 10.6655 39.1256 10.7482 39.3227C10.882 39.4247 11.5892 39.5223 12.0109 39.58C12.913 39.7036 13.9353 39.8441 14.6222 40.531C15.3068 41.2155 15.4484 42.2378 15.572 43.14C15.6298 43.5515 15.7238 44.2338 15.8587 44.4185C15.8735 44.4208 15.9324 44.4276 16.0582 44.4276C16.3506 44.4276 16.7348 44.3585 17.1406 44.287C18.1176 44.1125 19.1909 44.0128 19.9276 44.389C20.7856 44.8287 21.2321 45.7525 21.6266 46.5686C21.8136 46.955 22.1264 47.6033 22.3134 47.7133C22.5027 47.6974 23.058 47.4004 23.4649 47.1828C24.1982 46.7907 24.9565 46.3838 25.7895 46.3838Z" fill="#7092B9"/>
<path d="M43.3357 25.7129C43.3357 33.3893 37.1131 39.6108 29.4379 39.6108C21.7626 39.6108 15.54 33.3893 15.54 25.7129C15.54 18.0377 21.7626 11.8151 29.4379 11.8151C37.1131 11.8151 43.3357 18.0377 43.3357 25.7129Z" stroke="#7092B9" stroke-width="2.5"/>
</g>
<defs>
<clipPath id="clip0">
<rect width="59" height="59" fill="white" transform="translate(0 0.275024)"/>
</clipPath>
</defs>
</svg>
