<svg width="15" height="16" viewBox="0 0 15 16" fill="none" xmlns="http://www.w3.org/2000/svg">
<path d="M7.5 14.2518L0.999828 11.255C1.02233 11.2686 0.424681 10.9986 0 10.7558C0 11.1182 0.0909314 11.7824 0.428922 11.9614L6.79267 14.8222C7.35517 15.0875 7.5975 15.0875 8.20689 14.8222L14.5706 11.9614C14.8851 11.8152 15 11.1266 15 10.7558C14.5908 10.9607 14.0114 11.2527 14.0001 11.255L7.5 14.2518ZM7.5 1.76565C7.54686 1.82051 7.53468 1.7769 7.5 1.76565V1.76565ZM0.428922 8.96472L6.79267 11.8255C7.35517 12.0908 7.5975 12.0908 8.20689 11.8255L14.5706 8.96472C14.8851 8.81847 15 8.12989 15 7.75908C14.5908 7.96394 14.0114 8.25597 14.0001 8.25832L7.5 11.255L0.999828 8.25832C1.02233 8.27193 0.424681 8.0019 0 7.75908C0 8.12144 0.0909314 8.78568 0.428922 8.96472ZM0.428922 5.96801L6.79267 8.82879C7.35517 9.09411 7.5975 9.09411 8.20689 8.82879L14.5706 5.96801C15.0394 5.74957 15.0549 4.8205 14.5706 4.55519L8.20689 1.19519C7.70718 0.898936 7.35517 0.914402 6.79265 1.19519L0.428922 4.55519C-0.0553186 4.86737 -0.0707843 5.70269 0.428922 5.96801ZM7.5 1.76565L14.0001 5.26158L7.5 8.00097L0.999828 5.26158L7.5 1.76565Z" fill="#333333"/>
</svg>
