<svg width="15" height="16" viewBox="0 0 15 16" fill="none" xmlns="http://www.w3.org/2000/svg">
<path d="M14.9948 13.1252C14.9948 14.4367 13.9323 15.5 12.6214 15.5H2.37859C1.06776 15.5 0.00524902 14.4367 0.00524902 13.1252V2.87509C0.00524902 1.56326 1.06776 0.5 2.37859 0.5H12.6214C13.9323 0.5 14.9948 1.56326 14.9948 2.87509V13.1252ZM14.2453 2.87509C14.2453 1.97747 13.5183 1.24998 12.6214 1.24998H2.37859C1.48172 1.24998 0.754724 1.97747 0.754724 2.87509V13.1252C0.754724 14.0225 1.48172 14.75 2.37859 14.75H12.6214C13.5183 14.75 14.2453 14.0225 14.2453 13.1252V2.87509Z" fill="#333333"/>
<path d="M10.373 15.3751C10.1662 15.3751 9.99829 15.2072 9.99829 15.0001V0.999896C9.99829 0.792791 10.1662 0.624908 10.373 0.624908C10.5799 0.624908 10.7478 0.792791 10.7478 0.999896V15.0001C10.7478 15.2072 10.5799 15.3751 10.373 15.3751Z" fill="#333333"/>
<path d="M14.3884 8.49988H10.3912C10.1844 8.49988 10.0165 8.33225 10.0165 8.1249C10.0165 7.91779 10.1844 7.74991 10.3912 7.74991H14.3884C14.5953 7.74991 14.7632 7.91779 14.7632 8.1249C14.7632 8.33225 14.5953 8.49988 14.3884 8.49988Z" fill="#333333"/>
</svg>
