<svg width="12" height="15" viewBox="0 0 12 15" fill="none" xmlns="http://www.w3.org/2000/svg">
<path d="M5.89512 14.5633L5.97252 14.6579L6.04991 14.5633L6.31557 14.2386C6.41117 14.127 7.58754 12.7424 8.74209 10.9884C9.32089 10.1091 9.89556 9.13486 10.3258 8.18023C10.7553 7.22742 11.045 6.28528 11.045 5.47252C11.045 2.69425 8.75079 0.4 5.97252 0.4C3.19463 0.4 0.9 2.66426 0.9 5.47252C0.9 6.28531 1.18975 7.22562 1.61923 8.17615C2.04953 9.12848 2.6242 10.0999 3.20299 10.9774C4.19598 12.4828 5.20906 13.7227 5.52818 14.1132C5.58065 14.1775 5.61435 14.2187 5.62613 14.2344L5.62606 14.2345L5.62874 14.2377L5.89512 14.5633ZM1.81036 5.44292C1.81036 3.15943 3.66033 1.28077 5.97252 1.28077C8.2847 1.28077 10.1347 3.15943 10.1347 5.44292C10.1347 6.05245 9.93506 6.77249 9.61392 7.53422C9.2934 8.29448 8.85508 9.08877 8.38495 9.84465C7.49208 11.2803 6.48888 12.5704 5.97254 13.2155C5.45633 12.5699 4.45307 11.2728 3.56013 9.83364C3.08999 9.07587 2.65163 8.28061 2.33109 7.52168C2.00989 6.76119 1.81036 6.04492 1.81036 5.44292Z" fill="#333333" stroke="#333333" stroke-width="0.2"/>
<path d="M3.97849 5.47251C3.97849 6.56368 4.88161 7.4668 5.97278 7.4668C7.06395 7.4668 7.96707 6.56368 7.96707 5.47251C7.96707 4.38135 7.06395 3.47822 5.97278 3.47822C4.88161 3.47822 3.97849 4.38135 3.97849 5.47251ZM4.88885 5.47251C4.88885 4.87658 5.37685 4.38858 5.97278 4.38858C6.56871 4.38858 7.05671 4.87658 7.05671 5.47251C7.05671 6.06845 6.56871 6.55645 5.97278 6.55645C5.37685 6.55645 4.88885 6.06845 4.88885 5.47251Z" fill="#333333" stroke="#333333" stroke-width="0.2"/>
</svg>
