<svg width="15" height="16" viewBox="0 0 15 16" fill="none" xmlns="http://www.w3.org/2000/svg">
<g clip-path="url(#clip0)">
<path d="M4.38785 15.5C3.80054 15.5 3.24855 15.2714 2.83336 14.8562L1.64297 13.6659C0.785675 12.8085 0.785675 11.4138 1.64297 10.5565L8.95468 3.2442C9.36987 2.82902 9.92168 2.60043 10.5086 2.60043C11.0961 2.60043 11.6485 2.82943 12.064 3.24496L13.2544 4.43497C13.6698 4.85014 13.8986 5.40253 13.8986 5.98964C13.8988 6.57675 13.67 7.12914 13.2544 7.54428L5.94271 14.8562C5.52733 15.2714 4.97511 15.5 4.38785 15.5ZM10.5086 3.38991C10.1326 3.38991 9.77886 3.5364 9.5129 3.80238L2.20117 11.1147C1.65186 11.664 1.65186 12.5583 2.20117 13.1076L3.39156 14.298C3.9239 14.83 4.85217 14.83 5.38452 14.298L12.6962 6.98614C12.9626 6.71976 13.1091 6.36589 13.1091 5.98964C13.1091 5.6134 12.9624 5.25953 12.6962 4.99315L11.5058 3.80318C11.2393 3.5368 10.8852 3.38991 10.5086 3.38991Z" fill="#333333"/>
<path d="M1.65724 11.4177C1.58477 11.4177 1.51133 11.3977 1.44559 11.356C1.26173 11.2388 1.20757 10.9948 1.32456 10.8109L6.67898 2.39997C6.9972 1.90653 7.48889 1.56731 8.06423 1.4432C8.64053 1.32023 9.22763 1.42625 9.7193 1.74273L11.2744 2.72033C11.459 2.83634 11.5145 3.07995 11.3985 3.26463C11.2829 3.44927 11.0394 3.50479 10.8542 3.38877L9.29526 2.40887C8.97686 2.20338 8.60007 2.13512 8.23058 2.21532C7.86147 2.29476 7.54652 2.51177 7.34377 2.82594L1.9907 11.235C1.91533 11.3533 1.78772 11.4177 1.65724 11.4177Z" fill="#333333"/>
<path d="M1.48112 11.8063C1.44041 11.8063 1.39901 11.8001 1.35831 11.7866C1.15111 11.7188 1.03817 11.496 1.10601 11.2885L4.15711 1.97287C4.56496 0.8222 5.82282 0.223153 6.96537 0.624812L9.079 1.4675C9.28139 1.54807 9.38006 1.77783 9.29931 1.9802C9.21875 2.1826 8.98958 2.28203 8.78644 2.20069L6.68768 1.36379C5.97163 1.11209 5.16403 1.49603 4.90418 2.22768L1.85617 11.5345C1.80181 11.7006 1.64723 11.8063 1.48112 11.8063Z" fill="#333333"/>
<path d="M4.11845 13.5583C3.80622 13.5583 3.51264 13.4365 3.2916 13.216C2.83555 12.758 2.83594 12.0163 3.2916 11.5611C3.73295 11.1194 4.50338 11.1189 4.94552 11.5615C5.40076 12.0168 5.401 12.7584 4.94609 13.2152C4.72424 13.4365 4.43072 13.5583 4.11845 13.5583ZM4.11825 12.0079C4.01706 12.0079 3.92167 12.0476 3.84976 12.1197C3.70155 12.2677 3.70173 12.509 3.85014 12.6578C3.99278 12.8004 4.24335 12.8012 4.38754 12.657C4.535 12.509 4.53518 12.2677 4.38734 12.1197C4.31525 12.0476 4.21963 12.0079 4.11825 12.0079Z" fill="#333333"/>
</g>
<defs>
<clipPath id="clip0">
<rect width="15" height="15" fill="white" transform="translate(0 0.5)"/>
</clipPath>
</defs>
</svg>
