<svg width="15" height="14" viewBox="0 0 15 14" fill="none" xmlns="http://www.w3.org/2000/svg">
<path d="M5.21481 8.6142L4.93116 8.45408L6.14891 7.18296L6.43011 7.34459L5.21481 8.6142ZM7.99317 7.06396L5.12108 10.0558L5.40076 10.2139L8.27135 7.22521L7.99317 7.06396ZM14.6279 4.65373L14.6466 4.6558L10.4638 13.5146L0 13.5382L3.74811 5.51805C2.791 5.36812 2.30179 4.24071 2.28708 3.00184C2.30311 1.70978 2.8291 0.525786 3.87108 0.461853L13.4022 0.463739C13.4062 0.463739 13.409 0.461853 13.412 0.461853C14.4561 0.525786 14.9804 1.70978 15 3.00278C14.9911 3.61476 14.8652 4.19771 14.6279 4.65373ZM13.412 1.12985C13.2382 1.12589 13.0156 1.26451 12.8165 1.60794C12.6269 1.9459 12.4932 2.44586 12.4932 3.00391C12.4932 3.56102 12.6269 4.06494 12.8165 4.398C13.0137 4.74425 13.2382 4.88004 13.412 4.87702C13.585 4.88098 13.8105 4.74425 14.0087 4.398C14.1992 4.06494 14.3329 3.56102 14.3301 3.00391C14.3329 2.44586 14.1992 1.9459 14.0087 1.60794C13.8124 1.26451 13.585 1.12589 13.412 1.12985ZM3.87108 4.87495H12.3329C12.0087 4.39592 11.8358 3.72075 11.826 3.00297C11.8358 2.28424 12.0087 1.60699 12.3337 1.12985H3.87108C3.69927 1.12589 3.47409 1.26451 3.27682 1.60794C3.08294 1.94477 2.95206 2.44492 2.95206 3.00297C2.95206 3.56007 3.08294 4.064 3.27682 4.39705C3.47409 4.74218 3.69927 4.87891 3.87108 4.87495ZM13.4667 5.53258C13.4471 5.53503 13.4315 5.54295 13.412 5.54389H4.4361L1.19587 12.8662L10.0956 12.8485L13.4667 5.53258ZM6.4599 10.3478L6.74223 10.5098L8.68569 8.48916L8.4045 8.32905L6.4599 10.3478Z" fill="white"/>
</svg>
