<svg width="12" height="16" viewBox="0 0 12 16" fill="none" xmlns="http://www.w3.org/2000/svg">
<path d="M5.895 14.9758L5.97239 15.0704L6.04979 14.9758L6.31545 14.6511C6.41105 14.5395 7.58742 13.1549 8.74197 11.4009C9.32077 10.5215 9.89544 9.54734 10.3257 8.59271C10.7552 7.6399 11.0449 6.69775 11.0449 5.88499C11.0449 3.10672 8.75067 0.812476 5.97239 0.812476C3.19451 0.812476 0.899878 3.07674 0.899878 5.88499C0.899878 6.69779 1.18963 7.6381 1.61911 8.58863C2.0494 9.54096 2.62408 10.5124 3.20287 11.3898C4.19586 12.8952 5.20894 14.1351 5.52806 14.5257C5.58052 14.5899 5.61423 14.6312 5.62601 14.6469L5.62594 14.6469L5.62861 14.6502L5.895 14.9758ZM1.81024 5.85539C1.81024 3.57191 3.66021 1.69324 5.97239 1.69324C8.28458 1.69324 10.1345 3.57191 10.1345 5.85539C10.1345 6.46492 9.93493 7.18497 9.61379 7.9467C9.29327 8.70696 8.85495 9.50124 8.38483 10.2571C7.49195 11.6927 6.48876 12.9829 5.97241 13.628C5.45621 12.9824 4.45295 11.6853 3.56001 10.2461C3.08986 9.48835 2.65151 8.69309 2.33097 7.93415C2.00977 7.17366 1.81024 6.45739 1.81024 5.85539Z" fill="#7092B9" stroke="#7092B9" stroke-width="0.2"/>
<path d="M3.97837 5.88502C3.97837 6.97619 4.88149 7.87931 5.97266 7.87931C7.06383 7.87931 7.96695 6.97619 7.96695 5.88502C7.96695 4.79385 7.06383 3.89072 5.97266 3.89072C4.88149 3.89072 3.97837 4.79385 3.97837 5.88502ZM4.88873 5.88502C4.88873 5.28909 5.37672 4.80109 5.97266 4.80109C6.56859 4.80109 7.05659 5.28909 7.05659 5.88502C7.05659 6.48096 6.56859 6.96895 5.97266 6.96895C5.37672 6.96895 4.88873 6.48096 4.88873 5.88502Z" fill="#7092B9" stroke="#7092B9" stroke-width="0.2"/>
</svg>
