<svg width="15" height="16" viewBox="0 0 15 16" fill="none" xmlns="http://www.w3.org/2000/svg">
<g clip-path="url(#clip0)">
<path d="M7.5 0.412476C3.375 0.412476 0 3.78748 0 7.91248C0 12.0375 3.375 15.4125 7.5 15.4125C11.625 15.4125 15 12.0375 15 7.91248C15 3.78748 11.625 0.412476 7.5 0.412476ZM7.5 13.9125C4.2 13.9125 1.5 11.2125 1.5 7.91248C1.5 4.61248 4.2 1.91248 7.5 1.91248C10.8 1.91248 13.5 4.61248 13.5 7.91248C13.5 11.2125 10.8 13.9125 7.5 13.9125Z" fill="#7092B9"/>
<path d="M7.875 4.16248H6.75V8.66248L10.65 11.0625L11.25 10.0875L7.875 8.06248V4.16248Z" fill="#7092B9"/>
</g>
<defs>
<clipPath id="clip0">
<rect width="15" height="15" fill="white" transform="translate(0 0.412476)"/>
</clipPath>
</defs>
</svg>
