<svg width="15" height="15" viewBox="0 0 15 15" fill="none" xmlns="http://www.w3.org/2000/svg">
<path d="M13.9396 12.0719L13.8699 11.8619C13.7048 11.3713 13.1638 10.8596 12.6667 10.7248L10.8271 10.2222C10.3282 10.0865 9.61654 10.269 9.25154 10.634L8.58574 11.2998C6.16608 10.646 4.26869 8.74851 3.61575 6.32932L4.28158 5.66349C4.64658 5.29849 4.82905 4.58779 4.69333 4.08891L4.19169 2.24836C4.05597 1.75039 3.54332 1.20934 3.05363 1.04609L2.84363 0.975484C2.35299 0.812232 1.65327 0.977332 1.2883 1.34231L0.292354 2.33916C0.11443 2.51614 0.000714632 3.02236 0.000714632 3.02421C-0.034119 6.18623 1.20575 9.23269 3.44243 11.4694C5.67363 13.7006 8.70867 14.9386 11.8615 14.9121C11.878 14.9121 12.3989 14.8002 12.5768 14.6231L13.5728 13.6272C13.9377 13.2623 14.1028 12.5626 13.9396 12.0719Z" fill="#7092B9"/>
</svg>
