<svg width="16" height="13" viewBox="0 0 16 13" fill="none" xmlns="http://www.w3.org/2000/svg">
<path d="M14 0.912476H2C0.8955 0.912476 0 1.80798 0 2.91248V10.9125C0 12.017 0.8955 12.9125 2 12.9125H14C15.1045 12.9125 16 12.017 16 10.9125V2.91248C16 1.80798 15.1045 0.912476 14 0.912476ZM10.708 6.24938L14.9414 2.62144C14.9707 2.71519 15 2.80894 15 2.91248V10.9125C15 10.9818 14.9736 11.0434 14.96 11.1088L10.708 6.24938ZM14 1.91248C14.0664 1.91248 14.125 1.93788 14.1875 1.95057L8 7.25429L1.8125 1.95057C1.875 1.93788 1.93359 1.91248 2 1.91248H14ZM1.03956 11.1078C1.02587 11.0424 1 10.9818 1 10.9125V2.91248C1 2.80894 1.02978 2.71519 1.05909 2.62144L5.29103 6.24841L1.03956 11.1078ZM2 11.9125C1.89894 11.9125 1.80712 11.8832 1.71484 11.8549L6.05078 6.89976L7.67481 8.29135C7.76806 8.37244 7.88428 8.41248 8 8.41248C8.11572 8.41248 8.23194 8.37244 8.32519 8.29138L9.94922 6.89979L14.2852 11.8549C14.1934 11.8832 14.1016 11.9125 14 11.9125H2Z" fill="#7092B9"/>
</svg>
