<?xml version="1.0" standalone="no"?>
<!DOCTYPE svg PUBLIC "-//W3C//DTD SVG 20010904//EN"
 "http://www.w3.org/TR/2001/REC-SVG-20010904/DTD/svg10.dtd">
<svg version="1.0" xmlns="http://www.w3.org/2000/svg"
 width="81.000000pt" height="78.000000pt" viewBox="0 0 81.000000 78.000000"
 preserveAspectRatio="xMidYMid meet">
<metadata>
Created by potrace 1.16, written by Peter Selinger 2001-2019
</metadata>
<g transform="translate(0.000000,78.000000) scale(0.100000,-0.100000)"
fill="#000000" stroke="none">
<path d="M571 688 c0 -10 8 -22 18 -27 29 -16 84 -99 113 -171 29 -72 40 -140
23 -140 -6 0 -19 -25 -30 -56 -24 -71 -81 -136 -150 -170 -48 -23 -64 -26
-127 -22 -40 3 -82 8 -93 12 -11 4 -2 -3 20 -15 32 -18 56 -23 119 -23 43 -1
68 -4 55 -7 -37 -11 -140 -10 -177 0 -20 6 -30 6 -27 0 4 -5 -2 -12 -12 -16
-15 -6 -13 -9 12 -14 62 -14 149 -9 193 11 23 10 42 23 42 27 0 4 21 19 46 32
54 29 125 116 147 181 25 75 28 117 11 191 -16 71 -54 134 -112 185 -27 23
-59 33 -47 14 3 -5 2 -10 -4 -10 -5 0 -12 8 -14 18 -4 16 -5 16 -6 0z"/>
<path d="M280 573 c-45 -17 -67 -67 -55 -123 5 -24 18 -36 56 -55 53 -27 69
-58 49 -94 -15 -29 -48 -27 -62 4 -13 30 -48 34 -48 6 0 -51 49 -87 101 -76
41 9 59 40 59 101 0 57 -11 72 -72 97 -38 16 -48 40 -32 81 9 25 43 19 56 -9
6 -14 19 -25 30 -25 13 0 18 7 18 25 0 24 -31 65 -49 65 -5 0 -15 2 -23 4 -7
3 -20 2 -28 -1z"/>
<path d="M420 406 c0 -91 4 -167 9 -170 5 -4 16 -3 25 0 12 5 16 21 16 70 l0
64 33 0 c51 0 72 29 72 102 0 77 -22 98 -101 98 l-54 0 0 -164z"/>
</g>
</svg>
