<svg width="21" height="21" viewBox="0 0 21 21" fill="none" xmlns="http://www.w3.org/2000/svg">
<path fill-rule="evenodd" clip-rule="evenodd" d="M9.235 9.26424C9.10467 9.39458 9.10467 9.60524 9.235 9.73557L11.235 11.7356C11.3 11.8006 11.3853 11.8332 11.4707 11.8332C11.556 11.8332 11.6413 11.8006 11.7063 11.7356C11.8367 11.6052 11.8367 11.3946 11.7063 11.2642L9.70633 9.26424C9.576 9.13391 9.36533 9.13391 9.235 9.26424ZM8.373 10.5976C8.24267 10.4672 8.032 10.4672 7.90167 10.5976C7.77133 10.7279 7.77133 10.9386 7.90167 11.0689L9.90167 13.0689C9.96667 13.1339 10.052 13.1666 10.1373 13.1666C10.2227 13.1666 10.308 13.1339 10.373 13.0689C10.5033 12.9386 10.5033 12.7279 10.373 12.5976L8.373 10.5976ZM7.03967 11.9309C6.90933 11.8006 6.69867 11.8006 6.56833 11.9309C6.438 12.0612 6.438 12.2719 6.56833 12.4022L8.56833 14.4022C8.63333 14.4672 8.71867 14.4999 8.804 14.4999C8.88933 14.4999 8.97467 14.4672 9.03967 14.4022C9.17 14.2719 9.17 14.0612 9.03967 13.9309L7.03967 11.9309ZM13.3327 11.1666L9.804 7.63791L4.942 12.4999L8.47067 16.0286L13.3327 11.1666ZM10.0397 6.93091L14.0397 10.9309C14.17 11.0612 14.17 11.2719 14.0397 11.4022L8.70633 16.7356C8.64133 16.8006 8.556 16.8332 8.47067 16.8332C8.38533 16.8332 8.3 16.8006 8.235 16.7356L4.235 12.7356C4.10467 12.6052 4.10467 12.3946 4.235 12.2642L9.56833 6.93091C9.69867 6.80058 9.90933 6.80058 10.0397 6.93091ZM17.7957 12.6916C17.6363 12.5979 17.4323 12.6516 17.3393 12.8106L13.5187 19.3272C13.2427 19.8049 12.6297 19.9692 12.167 19.7026L11.4227 19.2202C11.2687 19.1199 11.062 19.1642 10.962 19.3186C10.8617 19.4732 10.9057 19.6796 11.0603 19.7796L11.819 20.2712C12.0807 20.4222 12.367 20.4939 12.6497 20.4939C13.226 20.4939 13.787 20.1956 14.0947 19.6626L17.9143 13.1476C18.0073 12.9889 17.9543 12.7849 17.7957 12.6916ZM20.4707 2.16658V7.49991C20.4707 8.53124 20.1427 9.29957 19.373 10.0689L9.47367 19.9822C9.15867 20.2972 8.74 20.4702 8.29467 20.4702C7.84933 20.4702 7.431 20.2972 7.11667 19.9822L0.988333 13.8542C0.673333 13.5392 0.5 13.1206 0.5 12.6752C0.5 12.2299 0.673333 11.8116 0.988333 11.4969L9.64633 2.85058C7.38233 2.33591 5.97733 2.30124 5.566 2.42158C5.73967 2.59924 6.28067 2.97658 7.58633 3.49124C7.75767 3.55891 7.84167 3.75224 7.77433 3.92358C7.70667 4.09491 7.513 4.17791 7.342 4.11158C4.63933 3.04624 4.79733 2.45558 4.857 2.23324C4.98067 1.76991 5.641 1.61558 6.99367 1.73391C8.09533 1.83024 9.51733 2.10191 10.9977 2.49824C12.478 2.89491 13.8447 3.37058 14.8467 3.83824C16.0783 4.41258 16.572 4.87558 16.4477 5.33924C16.3277 5.78658 15.704 5.84124 15.499 5.85924C15.4893 5.86024 15.4793 5.86057 15.4697 5.86057C15.2987 5.86057 15.1533 5.72958 15.138 5.55624C15.1217 5.37291 15.2573 5.21124 15.441 5.19524C15.583 5.18291 15.6773 5.16358 15.7383 5.14624C15.5957 4.99724 15.2347 4.76491 14.6573 4.48824C14.5363 4.69224 14.4707 4.92658 14.4707 5.16658C14.4707 5.90191 15.0687 6.49991 15.804 6.49991C16.5393 6.49991 17.1373 5.90191 17.1373 5.16658C17.1373 4.43124 16.5393 3.83324 15.804 3.83324C15.6197 3.83324 15.4707 3.68424 15.4707 3.49991C15.4707 3.31558 15.6197 3.16658 15.804 3.16658C16.907 3.16658 17.804 4.06358 17.804 5.16658C17.804 6.26958 16.907 7.16658 15.804 7.16658C14.701 7.16658 13.804 6.26958 13.804 5.16658C13.804 4.83224 13.892 4.50658 14.049 4.21591C13.2513 3.88091 12.1813 3.50591 10.8253 3.14224C10.6823 3.10391 10.5447 3.06891 10.407 3.03391L1.45967 11.9686C1.27067 12.1572 1.16667 12.4086 1.16667 12.6752C1.16667 12.9426 1.27067 13.1936 1.45967 13.3826L7.588 19.5109C7.96567 19.8886 8.62433 19.8886 9.002 19.5109L18.9013 9.59758C19.551 8.94824 19.804 8.35991 19.804 7.49991V2.16658C19.804 1.61524 19.3553 1.16658 18.804 1.16658H13.4707C12.6107 1.16658 12.0223 1.41958 11.373 2.06891C11.2427 2.19924 11.032 2.19924 10.9017 2.06891C10.7713 1.93858 10.7713 1.72791 10.9017 1.59758C11.671 0.827908 12.4393 0.499908 13.4707 0.499908H18.804C19.723 0.499908 20.4707 1.24758 20.4707 2.16658Z" fill="#FF7C24"/>
</svg>
