<svg width="26" height="25" viewBox="0 0 26 25" fill="none" xmlns="http://www.w3.org/2000/svg">
<path d="M24.8921 19.9276L24.7676 19.5526C24.4729 18.6765 23.5067 17.7627 22.6191 17.522L19.334 16.6246C18.4432 16.3822 17.1724 16.7081 16.5206 17.3598L15.3317 18.5488C11.0109 17.3812 7.62267 13.9929 6.45669 9.67294L7.64567 8.48396C8.29747 7.83216 8.62331 6.56306 8.38095 5.6722L7.48516 2.38551C7.2428 1.49628 6.32736 0.530117 5.45291 0.238597L5.07791 0.112514C4.20177 -0.179006 2.95227 0.115816 2.30053 0.767557L0.522061 2.54765C0.204339 2.86369 0.00127613 3.76765 0.00127613 3.77095C-0.0609267 9.41742 2.15312 14.8575 6.1472 18.8517C10.1315 22.8359 15.5512 25.0467 21.1813 24.9993C21.2107 24.9993 22.1409 24.7994 22.4586 24.4833L24.2371 22.7049C24.8888 22.0532 25.1836 20.8037 24.8921 19.9276Z" fill="white"/>
</svg>
