<svg width="38" height="34" viewBox="0 0 38 34" fill="none" xmlns="http://www.w3.org/2000/svg">
<path d="M36.8125 9.875C36.8457 9.98484 36.8125 9.86491 36.8125 9.875V9.875ZM36.8125 15.8125V9.875C36.8125 9.21891 36.2811 8.6875 35.625 8.6875V0.96875C35.625 0.641 35.359 0.375 35.0312 0.375H4.75C2.12681 0.375 0 2.50181 0 5.125C0 5.28531 0.0083125 5.44384 0.02375 5.6C0.0154375 5.63978 0 5.67659 0 5.71875V28.875C0 31.4982 2.12681 33.625 4.75 33.625H35.625C36.2811 33.625 36.8125 33.0936 36.8125 32.4375V26.5C37.4686 26.5 38 25.9686 38 25.3125V17C38 16.3439 37.468 15.8125 36.8125 15.8125ZM4.75 1.5625H34.4375V8.6875H33.25V3.9375C33.25 3.28141 32.718 2.75 32.0625 2.75H4.75C4.09391 2.75 3.5625 3.28141 3.5625 3.9375V8.48028C2.17966 7.99103 1.1875 6.67528 1.1875 5.125C1.1875 3.15731 2.78231 1.5625 4.75 1.5625ZM4.75 5.125V3.9375H32.0625V5.125H4.75ZM32.0625 6.3125V8.6875H4.75V6.3125H32.0625ZM35.625 32.4375H4.75C2.78231 32.4375 1.1875 30.8427 1.1875 28.875V8.25941C2.05794 9.248 3.32916 9.875 4.75 9.875H35.625V15.8125H32.6562C29.7047 15.8125 27.3125 18.2047 27.3125 21.1562C27.3125 24.1078 29.7047 26.5 32.6562 26.5H35.625V32.4375ZM36.8125 25.3125H32.6562C30.3608 25.3125 28.5 23.4517 28.5 21.1562C28.5 18.8608 30.3608 17 32.6562 17H36.8125V25.3125ZM30.875 21.1562C30.875 22.1401 31.6724 22.9375 32.6562 22.9375C33.6401 22.9375 34.4375 22.1401 34.4375 21.1562C34.4375 20.1724 33.6401 19.375 32.6562 19.375C31.6724 19.375 30.875 20.1724 30.875 21.1562ZM33.25 21.1562C33.25 21.484 32.984 21.75 32.6562 21.75C32.3285 21.75 32.0625 21.484 32.0625 21.1562C32.0625 20.8285 32.3285 20.5625 32.6562 20.5625C32.984 20.5625 33.25 20.8285 33.25 21.1562Z" fill="#333333"/>
</svg>
