<svg width="71" height="35" viewBox="0 0 71 35" fill="none" xmlns="http://www.w3.org/2000/svg">
<path d="M41.4568 18.0223C41.1603 17.1159 41.0103 16.1674 41.0103 15.2035C41.0103 10.2036 45.0779 6.13603 50.0778 6.13603C55.0776 6.13603 59.1453 10.2036 59.1453 15.2035C59.1453 20.2036 55.0776 24.2712 50.0778 24.2712C46.672 24.2712 43.5836 22.3904 42.0179 19.3626L40.4149 20.1917C42.2919 23.8212 45.9947 26.0759 50.0778 26.0759C56.0728 26.0759 60.95 21.1986 60.95 15.2035C60.95 9.20866 56.0728 4.33134 50.0778 4.33134C44.0829 4.33134 39.2056 9.20866 39.2056 15.2035C39.2056 16.3582 39.3856 17.495 39.7413 18.583L41.4568 18.0223Z" fill="#333333"/>
<path d="M50.078 23.5459C54.6781 23.5459 58.4204 19.8035 58.4204 15.2034C58.4204 10.6034 54.6781 6.86092 50.078 6.86092C45.4778 6.86092 41.7354 10.6034 41.7354 15.2034C41.7354 19.8035 45.4778 23.5459 50.078 23.5459ZM50.078 8.66575C53.5336 8.66575 56.3697 11.3612 56.5989 14.7597H54.1269V16.5644H56.4721C55.8441 19.5184 53.2162 21.7413 50.0778 21.7413C46.9395 21.7413 44.3115 19.5184 43.6835 16.5644H52.56V14.7597H43.5567C43.7862 11.3612 46.6223 8.66575 50.078 8.66575Z" fill="#333333"/>
<path d="M3.80175 33.1314H6.60624V34.8617H8.41093V33.1314V31.8778H27.1167V34.8104H30.6468H32.4515H53.0921C62.6513 34.8104 70.4281 27.0336 70.4281 17.4744C70.4281 7.91531 62.6511 0.138306 53.0921 0.138306H42.484L40.8667 1.76373L40.7386 1.63785C39.5564 0.47548 37.6423 0.484956 36.4719 1.65936L32.8968 5.24617C32.3232 5.82157 32.0096 6.586 32.0135 7.39856C32.0176 8.21097 32.339 8.97225 32.9183 9.54193L33.0239 9.6457L30.6466 12.0348V24.941L27.1165 27.1143V30.0734H8.41093V29.7314H24.9754V27.9267H8.41093V26.6729H3.80175C2.02098 26.6729 0.572266 28.1216 0.572266 29.9026C0.572266 31.6829 2.02098 33.1314 3.80175 33.1314ZM34.2962 8.36557L34.1837 8.25489C33.9497 8.02494 33.82 7.71754 33.8182 7.38924C33.8166 7.06109 33.9432 6.75248 34.1749 6.52013L37.7502 2.93332C37.9881 2.6945 38.302 2.57493 38.6161 2.57493C38.9261 2.57493 39.2362 2.69134 39.4732 2.92459L39.5937 3.04295L38.0836 4.56069L34.2962 8.36557ZM32.4515 12.7794L39.4991 5.69659L42.1538 3.02941L42.1535 3.02896L43.2342 1.94284H50.0778C55.0092 1.94284 59.4914 4.661 61.7754 9.03647L63.3752 8.20135C62.3214 6.18265 60.856 4.47452 59.112 3.15725C64.6949 5.51357 68.6234 11.0436 68.6234 17.4743C68.6234 26.0383 61.6561 33.0056 53.0921 33.0056H36.5758V30.12H51.1369C58.8188 30.12 65.0686 23.8702 65.0686 16.1881V15.1289C65.0686 13.2454 64.7236 11.4084 64.043 9.66886L62.3625 10.3264C62.9608 11.8555 63.2639 13.4712 63.2639 15.1289V16.1881C63.2639 22.8751 57.8237 28.3153 51.1369 28.3153H34.7711V33.0056H32.4513V23.8295V12.7794H32.4515ZM28.9212 28.1224L30.6466 27.0602V33.0059H28.9212V28.1224ZM3.80175 28.4773H6.60624V28.9999H4.73763V30.8046H6.60624V30.8308V31.3269H3.80175C3.01611 31.3269 2.37695 30.6878 2.37695 29.9023C2.37695 29.1165 3.01611 28.4773 3.80175 28.4773Z" fill="#333333"/>
<path d="M40.1157 25.5486H34.8164V27.3533H40.1157V25.5486Z" fill="#333333"/>
</svg>
