<svg width="15" height="22" viewBox="0 0 15 22" fill="none" xmlns="http://www.w3.org/2000/svg">
<path d="M9 13.5H6C5.724 13.5 5.5 13.7235 5.5 14C5.5 14.2765 5.724 14.5 6 14.5H9C9.2765 14.5 9.5 14.2765 9.5 14C9.5 13.7235 9.2765 13.5 9 13.5ZM10.5 11.5H4.5C4.224 11.5 4 11.7235 4 12C4 12.2765 4.224 12.5 4.5 12.5H10.5C10.7765 12.5 11 12.2765 11 12C11 11.7235 10.7765 11.5 10.5 11.5ZM14.5 5H12V4.5C12 2.0145 9.9855 0 7.5 0C5.0145 0 3 2.0145 3 4.5V5H0.5C0.224 5 0 5.2235 0 5.5V20.5C0 21.3285 0.6715 22 1.5 22H13.5C14.328 22 15 21.3285 15 20.5V5.5C15 5.2235 14.7765 5 14.5 5ZM4 4.5C4 2.567 5.567 1 7.5 1C9.433 1 11 2.567 11 4.5V5H4V4.5ZM14 20.5C14 20.7765 13.7765 21 13.5 21H1.5C1.224 21 1 20.7765 1 20.5V6H3V7.5C3 7.7765 3.224 8 3.5 8C3.776 8 4 7.7765 4 7.5V6H11V7.5C11 7.7765 11.2235 8 11.5 8C11.7765 8 12 7.7765 12 7.5V6H14V20.5Z" fill="#333333"/>
</svg>
