<svg width="15" height="14" viewBox="0 0 15 14" fill="none" xmlns="http://www.w3.org/2000/svg">
<path d="M13.9396 11.1595L13.8699 10.9495C13.7048 10.4588 13.1638 9.94712 12.6667 9.8123L10.8271 9.30975C10.3282 9.17403 9.61654 9.35653 9.25154 9.72151L8.58574 10.3873C6.16608 9.73348 4.26869 7.83603 3.61575 5.41684L4.28158 4.75102C4.64658 4.38601 4.82905 3.67531 4.69333 3.17643L4.19169 1.33589C4.05597 0.837916 3.54332 0.296866 3.05363 0.133614L2.84363 0.0630081C2.35299 -0.100243 1.65327 0.0648568 1.2883 0.429832L0.292354 1.42668C0.11443 1.60367 0.000714632 2.10988 0.000714632 2.11173C-0.034119 5.27375 1.20575 8.32021 3.44243 10.5569C5.67363 12.7881 8.70867 14.0262 11.8615 13.9996C11.878 13.9996 12.3989 13.8877 12.5768 13.7107L13.5728 12.7147C13.9377 12.3498 14.1028 11.6501 13.9396 11.1595Z" fill="#FF7C24"/>
</svg>
