<svg width="11" height="16" viewBox="0 0 11 16" fill="none" xmlns="http://www.w3.org/2000/svg">
<path d="M5.64512 14.8883L5.72252 14.9829L5.79991 14.8883L6.06557 14.5636C6.16117 14.452 7.33754 13.0674 8.49209 11.3134C9.07089 10.434 9.64556 9.45984 10.0758 8.50521C10.5053 7.5524 10.795 6.61026 10.795 5.7975C10.795 3.01923 8.50079 0.724982 5.72252 0.724982C2.94463 0.724982 0.65 2.98924 0.65 5.7975C0.65 6.61029 0.939748 7.55061 1.36923 8.50114C1.79953 9.45347 2.3742 10.4249 2.95299 11.3023C3.94598 12.8077 4.95906 14.0477 5.27818 14.4382C5.33065 14.5024 5.36435 14.5437 5.37613 14.5594L5.37606 14.5595L5.37874 14.5627L5.64512 14.8883ZM1.56036 5.7679C1.56036 3.48441 3.41033 1.60575 5.72252 1.60575C8.0347 1.60575 9.88467 3.48441 9.88467 5.7679C9.88467 6.37743 9.68506 7.09747 9.36392 7.85921C9.0434 8.61946 8.60508 9.41375 8.13495 10.1696C7.24208 11.6052 6.23888 12.8954 5.72254 13.5405C5.20633 12.8949 4.20307 11.5978 3.31013 10.1586C2.83999 9.40086 2.40163 8.60559 2.08109 7.84666C1.75989 7.08617 1.56036 6.3699 1.56036 5.7679Z" fill="#FF7C24" stroke="#FF7C24" stroke-width="0.2"/>
<path d="M3.72861 5.7975C3.72861 6.88867 4.63173 7.79179 5.7229 7.79179C6.81407 7.79179 7.71719 6.88867 7.71719 5.7975C7.71719 4.70633 6.81407 3.8032 5.7229 3.8032C4.63173 3.8032 3.72861 4.70633 3.72861 5.7975ZM4.63897 5.7975C4.63897 5.20156 5.12697 4.71356 5.7229 4.71356C6.31884 4.71356 6.80683 5.20156 6.80683 5.7975C6.80683 6.39343 6.31884 6.88143 5.7229 6.88143C5.12697 6.88143 4.63897 6.39343 4.63897 5.7975Z" fill="#FF7C24" stroke="#FF7C24" stroke-width="0.2"/>
</svg>
