<svg width="17" height="13" viewBox="0 0 17 13" fill="none" xmlns="http://www.w3.org/2000/svg">
<path d="M14.75 0.825012H2.75C1.6455 0.825012 0.75 1.72051 0.75 2.82501V10.825C0.75 11.9295 1.6455 12.825 2.75 12.825H14.75C15.8545 12.825 16.75 11.9295 16.75 10.825V2.82501C16.75 1.72051 15.8545 0.825012 14.75 0.825012ZM11.458 6.16192L15.6914 2.53398C15.7207 2.62773 15.75 2.72148 15.75 2.82501V10.825C15.75 10.8944 15.7236 10.9559 15.71 11.0213L11.458 6.16192ZM14.75 1.82501C14.8164 1.82501 14.875 1.85042 14.9375 1.86311L8.75 7.16682L2.5625 1.86311C2.625 1.85042 2.68359 1.82501 2.75 1.82501H14.75ZM1.78956 11.0203C1.77587 10.9549 1.75 10.8944 1.75 10.825V2.82501C1.75 2.72148 1.77978 2.62773 1.80909 2.53398L6.04103 6.16095L1.78956 11.0203ZM2.75 11.825C2.64894 11.825 2.55712 11.7957 2.46484 11.7674L6.80078 6.81229L8.42481 8.20389C8.51806 8.28498 8.63428 8.32501 8.75 8.32501C8.86572 8.32501 8.98194 8.28498 9.07519 8.20392L10.6992 6.81232L15.0352 11.7674C14.9434 11.7957 14.8516 11.825 14.75 11.825H2.75Z" fill="#FF7C24"/>
</svg>
