<svg width="21" height="21" viewBox="0 0 21 21" fill="none" xmlns="http://www.w3.org/2000/svg">
<path d="M14.1875 5.38314L10.2544 1.45001H0.75V20.2H14.1875V5.38314ZM10.4375 2.51689L13.1206 5.20001H10.4375V2.51689ZM1.375 19.575V2.07501H9.8125V5.82501H13.5625V19.575H1.375Z" fill="#FF7C24"/>
<path d="M20.75 0.825012H17.625V17.7738L19.1875 20.8988L20.75 17.7738V0.825012ZM20.125 1.45001V3.95001H18.25V1.45001H20.125ZM19.1875 19.5013L18.25 17.6263V4.57501H20.125V17.6263L19.1875 19.5013Z" fill="#FF7C24"/>
<path d="M7 4.57501H3.25V5.20001H7V4.57501Z" fill="#FF7C24"/>
<path d="M11.6875 7.70001H3.25V8.32501H11.6875V7.70001Z" fill="#FF7C24"/>
<path d="M11.6875 10.2H3.25V10.825H11.6875V10.2Z" fill="#FF7C24"/>
<path d="M11.6875 12.7H3.25V13.325H11.6875V12.7Z" fill="#FF7C24"/>
<path d="M11.6875 15.2H3.25V15.825H11.6875V15.2Z" fill="#FF7C24"/>
</svg>
