<svg width="15" height="16" viewBox="0 0 15 16" fill="none" xmlns="http://www.w3.org/2000/svg">
<g clip-path="url(#clip0)">
<path d="M7.89487 15.0633L7.97227 15.1579L8.04967 15.0633L8.31533 14.7386C8.41093 14.627 9.58729 13.2424 10.7418 11.4884C11.3206 10.6091 11.8953 9.63486 12.3256 8.68023C12.7551 7.72742 13.0448 6.78528 13.0448 5.97252C13.0448 3.19425 10.7505 0.9 7.97227 0.9C5.19439 0.9 2.89976 3.16426 2.89976 5.97252C2.89976 6.78531 3.1895 7.72562 3.61899 8.67615C4.04928 9.62848 4.62396 10.5999 5.20275 11.4774C6.19573 12.9828 7.20882 14.2227 7.52794 14.6132C7.5804 14.6775 7.61411 14.7187 7.62589 14.7344L7.62582 14.7345L7.62849 14.7377L7.89487 15.0633ZM3.81012 5.94292C3.81012 3.65943 5.66009 1.78077 7.97227 1.78077C10.2845 1.78077 12.1344 3.65943 12.1344 5.94292C12.1344 6.55245 11.9348 7.27249 11.6137 8.03422C11.2932 8.79448 10.8548 9.58877 10.3847 10.3446C9.49183 11.7803 8.48864 13.0704 7.97229 13.7155C7.45608 13.0699 6.45283 11.7728 5.55989 10.3336C5.08974 9.57587 4.65139 8.78061 4.33085 8.02168C4.00965 7.26119 3.81012 6.54492 3.81012 5.94292Z" fill="#FF7C24" stroke="#FF7C24" stroke-width="0.2"/>
<path d="M5.97812 5.97255C5.97812 7.06371 6.88125 7.96683 7.97241 7.96683C9.06358 7.96683 9.9667 7.06371 9.9667 5.97255C9.9667 4.88138 9.06358 3.97825 7.97241 3.97825C6.88124 3.97825 5.97812 4.88138 5.97812 5.97255ZM6.88848 5.97255C6.88848 5.37661 7.37648 4.88861 7.97241 4.88861C8.56835 4.88861 9.05635 5.37661 9.05635 5.97255C9.05635 6.56848 8.56835 7.05648 7.97241 7.05648C7.37648 7.05648 6.88848 6.56848 6.88848 5.97255Z" fill="#FF7C24" stroke="#FF7C24" stroke-width="0.2"/>
</g>
<defs>
<clipPath id="clip0">
<rect width="15" height="15" fill="white" transform="translate(0 0.5)"/>
</clipPath>
</defs>
</svg>
