<svg width="19" height="23" viewBox="0 0 19 23" fill="none" xmlns="http://www.w3.org/2000/svg">
<path d="M7.69302 18.4828C6.93702 18.4828 6.32202 19.0738 6.32202 19.7998C6.32202 20.5258 6.93702 21.1168 7.69302 21.1168C8.44902 21.1168 9.06402 20.5258 9.06402 19.7998C9.06402 19.0738 8.44902 18.4828 7.69302 18.4828ZM7.69302 20.3168C7.37902 20.3168 7.12302 20.0858 7.12302 19.7998C7.12302 19.5138 7.37902 19.2828 7.69302 19.2828C8.00702 19.2828 8.26302 19.5138 8.26302 19.7998C8.26302 20.0858 8.00802 20.3168 7.69302 20.3168Z" fill="#333333"/>
<path d="M7.69302 14.8168C6.93702 14.8168 6.32202 15.4078 6.32202 16.1338C6.32202 16.8598 6.93702 17.4498 7.69302 17.4498C8.44902 17.4498 9.06402 16.8588 9.06402 16.1338C9.06402 15.4068 8.44902 14.8168 7.69302 14.8168ZM7.69302 16.6498C7.37902 16.6498 7.12302 16.4188 7.12302 16.1338C7.12302 15.8488 7.37902 15.6168 7.69302 15.6168C8.00702 15.6168 8.26302 15.8478 8.26302 16.1338C8.26402 16.4178 8.00802 16.6498 7.69302 16.6498Z" fill="#333333"/>
<path d="M4.02403 14.8168C3.25803 14.8168 2.63403 15.4078 2.63403 16.1338C2.63403 16.8598 3.25803 17.4498 4.02403 17.4498C4.79003 17.4498 5.41403 16.8588 5.41403 16.1338C5.41403 15.4068 4.79003 14.8168 4.02403 14.8168ZM4.02403 16.6498C3.70503 16.6498 3.43503 16.4138 3.43503 16.1338C3.43503 15.8488 3.69903 15.6168 4.02403 15.6168C4.34903 15.6168 4.61303 15.8478 4.61303 16.1338C4.61303 16.4128 4.34403 16.6498 4.02403 16.6498Z" fill="#333333"/>
<path d="M4.02403 18.4828C3.25803 18.4828 2.63403 19.0738 2.63403 19.7998C2.63403 20.5258 3.25803 21.1168 4.02403 21.1168C4.79003 21.1168 5.41403 20.5258 5.41403 19.7998C5.41403 19.0738 4.79003 18.4828 4.02403 18.4828ZM4.02403 20.3168C3.70503 20.3168 3.43503 20.0808 3.43503 19.7998C3.43503 19.5188 3.70503 19.2828 4.02403 19.2828C4.34303 19.2828 4.61303 19.5188 4.61303 19.7998C4.61303 20.0808 4.34403 20.3168 4.02403 20.3168Z" fill="#333333"/>
<path d="M5.84995 2.78376H13.266C13.487 2.78376 13.666 2.60376 13.666 2.38376C13.666 2.16376 13.486 1.98376 13.266 1.98376H5.84995C5.62895 1.98376 5.44995 2.16376 5.44995 2.38376C5.44995 2.60376 5.62895 2.78376 5.84995 2.78376Z" fill="#333333"/>
<path d="M15 3.8158H4.03696C3.26596 3.8158 2.63696 4.4448 2.63696 5.2158V8.7158C2.63696 9.4868 3.26596 10.1158 4.03696 10.1158H15C15.771 10.1158 16.4 9.4868 16.4 8.7158V5.2158C16.4 4.4448 15.771 3.8158 15 3.8158ZM15.6 8.7158C15.6 9.0468 15.331 9.3158 15 9.3158H4.03696C3.70596 9.3158 3.43696 9.0468 3.43696 8.7158V5.2158C3.43696 4.8848 3.70596 4.6158 4.03696 4.6158H15C15.331 4.6158 15.6 4.8848 15.6 5.2158V8.7158Z" fill="#333333"/>
<path d="M16.3629 12.4658C16.3629 11.7398 15.7569 11.1498 15.0109 11.1498C14.2649 11.1498 13.6589 11.7408 13.6589 12.4658C13.6589 13.1928 14.2649 13.7828 15.0109 13.7828C15.7569 13.7828 16.3629 13.1928 16.3629 12.4658ZM14.4609 12.4658C14.4609 12.1818 14.7079 11.9498 15.0119 11.9498C15.3159 11.9498 15.5629 12.1808 15.5629 12.4658C15.5629 12.7508 15.3159 12.9828 15.0119 12.9828C14.7079 12.9828 14.4609 12.7508 14.4609 12.4658Z" fill="#333333"/>
<path d="M17.671 1.30778L17.083 0.67778L16.963 0.59478C16.407 0.34578 15.495 0.14978 14.887 0.14978H4.11296C3.50496 0.14978 2.59196 0.34578 2.03696 0.59478L1.40996 1.18878L1.32896 1.30778C1.08096 1.86378 0.886963 2.77578 0.886963 3.38378V19.7168C0.886963 20.3248 1.08096 21.2368 1.32896 21.7928L1.91796 22.4218L2.03696 22.5048C2.59296 22.7538 3.50496 22.9498 4.11296 22.9498H14.886C15.494 22.9498 16.407 22.7538 16.962 22.5048L17.588 21.9118L17.67 21.7928C17.918 21.2358 18.112 20.3248 18.112 19.7168V3.38378C18.113 2.77578 17.919 1.86378 17.671 1.30778ZM17.313 19.7168C17.313 20.1898 17.158 20.9408 16.968 21.4028L16.57 21.8028C16.109 21.9938 15.36 22.1498 14.887 22.1498H4.11296C3.63996 22.1498 2.89096 21.9948 2.42996 21.8028L2.03196 21.4028C1.84296 20.9408 1.68696 20.1898 1.68696 19.7168V3.38378C1.68696 2.91078 1.84196 2.15978 2.03196 1.69778L2.42996 1.29678C2.89196 1.10578 3.64096 0.94978 4.11296 0.94978H14.886C15.359 0.94978 16.108 1.10478 16.569 1.29678L16.967 1.69778C17.156 2.15978 17.312 2.91078 17.312 3.38378V19.7168H17.313Z" fill="#333333"/>
<path d="M15.0299 14.8168C14.2749 14.8168 13.6599 15.4458 13.6599 16.2168V19.7168C13.6599 20.4878 14.2749 21.1168 15.0299 21.1168C15.7849 21.1168 16.3999 20.4878 16.3999 19.7168V16.2168C16.3999 15.4458 15.7849 14.8168 15.0299 14.8168ZM15.5999 19.7168C15.5999 20.0478 15.3449 20.3168 15.0309 20.3168C14.7169 20.3168 14.4619 20.0478 14.4619 19.7168V16.2168C14.4619 15.8858 14.7169 15.6168 15.0309 15.6168C15.3449 15.6168 15.5999 15.8858 15.5999 16.2168V19.7168Z" fill="#333333"/>
<path d="M11.363 14.8168C10.618 14.8168 10.011 15.4078 10.011 16.1338C10.011 16.8598 10.617 17.4498 11.363 17.4498C12.109 17.4498 12.715 16.8588 12.715 16.1338C12.715 15.4068 12.108 14.8168 11.363 14.8168ZM11.363 16.6498C11.059 16.6498 10.812 16.4188 10.812 16.1338C10.812 15.8488 11.059 15.6168 11.363 15.6168C11.667 15.6168 11.914 15.8478 11.914 16.1338C11.914 16.4178 11.667 16.6498 11.363 16.6498Z" fill="#333333"/>
<path d="M11.363 11.1498C10.618 11.1498 10.011 11.7408 10.011 12.4658C10.011 13.1928 10.617 13.7828 11.363 13.7828C12.109 13.7828 12.715 13.1918 12.715 12.4658C12.715 11.7398 12.108 11.1498 11.363 11.1498ZM11.363 12.9828C11.059 12.9828 10.812 12.7518 10.812 12.4658C10.812 12.1818 11.059 11.9498 11.363 11.9498C11.667 11.9498 11.914 12.1808 11.914 12.4658C11.914 12.7508 11.667 12.9828 11.363 12.9828Z" fill="#333333"/>
<path d="M11.363 18.4828C10.618 18.4828 10.011 19.0738 10.011 19.7998C10.011 20.5258 10.617 21.1168 11.363 21.1168C12.109 21.1168 12.715 20.5258 12.715 19.7998C12.715 19.0738 12.108 18.4828 11.363 18.4828ZM11.363 20.3168C11.059 20.3168 10.812 20.0858 10.812 19.7998C10.812 19.5138 11.059 19.2828 11.363 19.2828C11.667 19.2828 11.914 19.5138 11.914 19.7998C11.914 20.0858 11.667 20.3168 11.363 20.3168Z" fill="#333333"/>
<path d="M7.69302 11.1498C6.93702 11.1498 6.32202 11.7408 6.32202 12.4658C6.32202 13.1928 6.93702 13.7828 7.69302 13.7828C8.44902 13.7828 9.06402 13.1918 9.06402 12.4658C9.06402 11.7398 8.44902 11.1498 7.69302 11.1498ZM7.69302 12.9828C7.37902 12.9828 7.12302 12.7518 7.12302 12.4658C7.12302 12.1818 7.37902 11.9498 7.69302 11.9498C8.00702 11.9498 8.26302 12.1808 8.26302 12.4658C8.26402 12.7508 8.00802 12.9828 7.69302 12.9828Z" fill="#333333"/>
</svg>
