<svg width="735" height="420" viewBox="0 0 735 420" fill="none" xmlns="http://www.w3.org/2000/svg">
<path fill-rule="evenodd" clip-rule="evenodd" d="M0 106.067L4.72383 105.476L7.0857 105.772L9.74282 105.181L15.3523 100.75L19.4857 103.999L20.6667 104.59L28.3429 108.135L30.4095 109.612L33.6571 112.271L34.8381 113.157L36.6095 114.338L40.4476 115.52L40.7428 116.701L40.4476 117.588V118.769L41.6286 120.542L44.2857 122.314V123.495L42.5143 128.222V130.29L46.0572 133.243L50.4857 128.517L52.5523 124.086L55.8 119.655L58.7524 118.178L62.5904 116.997L68.7904 115.815L70.5619 112.566L69.9714 107.84L72.3333 107.249L75.581 108.726L79.1238 107.544L81.7809 106.658L86.8 107.84L87.9809 108.43L88.8667 111.68L91.2285 111.975L93.8857 112.566L99.2 116.997L103.333 118.474L107.171 116.406H110.714L114.552 115.224L116.324 111.68L119.867 109.317L122.524 106.953L122.819 103.704L124 100.75L125.476 98.9777L131.086 98.3869L136.105 99.2731L139.352 101.045L142.6 103.704L148.209 104.59L150.867 104.886L154.705 106.363L156.476 104.295L157.067 100.455L156.771 96.6145L158.838 92.7744L161.2 86.5711L160.019 80.3678L158.543 76.2323L154.409 74.4599L152.048 71.506L151.162 65.3027L150.571 62.3488L151.162 56.1455L150.276 48.1698L150.867 43.1481V39.0126L152.343 36.9448L154.114 35.7632L159.429 38.4218L164.448 41.3757L169.171 41.0804L173.6 36.9448L176.552 31.6277L178.619 20.1073H181.571L183.933 23.0613L186.886 22.4705L187.771 20.6981L188.657 18.6303H190.133L193.971 20.4027L196.038 17.7441H197.514L201.057 18.3349L204.6 17.1534L208.143 18.3349L214.048 20.6981L218.476 21.8797L221.724 21.2889L224.381 20.6981L229.105 29.8554L227.924 36.354L227.038 42.2619L228.809 47.579L231.762 54.6685L231.467 57.9179L229.99 61.1672V62.3488L232.352 62.6441L237.371 62.0534L241.505 63.5303L244.457 70.029L247.409 76.2323L250.067 78.8908L253.609 81.5494L254.495 85.0942L253.609 88.6389L254.2 92.7744L256.857 96.9099L260.105 99.5685L265.124 98.3869L272.209 95.1376L278.114 93.3652L284.019 95.7284L291.105 99.5685L295.828 100.75L299.667 98.0915L300.257 93.956L303.209 91.2975L304.981 87.7527V84.5034L309.409 80.0725L309.114 73.8691L316.2 70.6198L316.79 63.8257L322.695 61.4626L326.238 60.281L327.419 58.5086L330.076 59.6902L332.733 60.8718V55.2593L331.848 47.2836L333.324 44.0343L337.752 42.8527L339.819 40.4895L341.886 39.0126L344.838 43.1481H348.971L350.448 39.6034L356.057 35.1725L363.438 31.0369L366.095 30.4461L385.581 33.9909L389.714 41.6711L392.667 49.6468L395.029 52.6007L397.686 53.4869L399.457 48.7606L407.724 45.8066L416.286 43.7389L418.648 45.8066L419.238 50.533L425.143 52.8961L428.981 52.6007L433.41 48.1698L437.838 46.6928L446.695 42.2619L449.648 39.8988L454.076 43.1481L459.095 40.4895L464.705 38.7172L471.495 36.6494L477.695 34.5816L482.419 32.2185L487.733 29.2646L490.686 26.606L495.41 23.9475L498.657 30.7415L503.086 28.3784L508.4 23.0613L518.143 15.9718L523.457 16.858L527.886 13.6086L535.267 10.9501L539.105 7.70075L541.467 2.67904L545.6 -0.274902L548.848 0.315878L551.209 3.86061L553.571 6.81455L553.867 8.88231L555.343 10.9501L556.819 13.6086L558 18.6303L558.886 22.4705L560.362 26.0152L564.495 28.9692L566.267 34.5816L570.99 36.0586L573.057 35.7632L574.238 35.1725L578.076 36.9448L580.438 39.6034L583.39 41.3757L583.981 41.0804L586.638 39.308L587.229 35.4678L589.295 33.4001L591.067 30.4461L589.59 25.129L594.314 23.652L596.086 20.1073V14.4948L598.152 10.0639L603.171 8.58694L609.076 5.63299L614.095 5.33758L617.933 4.7468L622.067 2.67904L625.905 1.49744L629.743 6.22377L632.4 7.10997L639.781 5.92836L643.619 5.04217L646.571 4.15602L651.295 4.7468H650.409L653.362 6.51914L656.019 2.67904L657.2 0.0204653L659.562 0.315878L661.333 0.611246L662.514 1.20207L666.648 4.15602L669.305 6.81455L673.143 9.17772L680.524 12.7224L684.657 14.4948L689.381 16.5626L691.743 19.5165L691.448 24.2428V25.129L694.4 28.3784L694.99 30.1507L694.4 33.6955L693.514 36.9448L695.286 41.0804L698.238 43.4435L698.533 45.2159L697.648 48.7606L697.943 51.7145L700.305 52.3053L704.438 46.3974L705.914 45.5113L707.39 46.1021V47.579L708.276 50.533L710.343 52.01L713.886 51.1238L718.019 44.9205L722.152 42.8527L724.809 43.1481L727.467 45.8066L734.848 52.3053L733.371 54.3731V57.6224L719.79 63.8257L716.838 65.8935L713.295 69.7336L709.162 69.1429L705.324 70.029L704.143 73.8691L702.371 76.5277L700.895 79.4817L698.238 82.1402L696.171 84.5034L696.467 89.2297V93.6606L696.762 98.3869L700.6 100.75L703.848 98.9777L705.029 102.522V107.249L708.867 110.498L708.571 115.815L707.686 119.951L701.486 118.178L699.419 133.539L692.924 139.447L687.905 135.311L683.771 133.539L682.295 135.607L680.229 139.447L680.524 142.401L681.705 146.536L685.248 149.49L684.067 152.149L683.771 155.398L688.2 156.58L688.79 159.238L687.314 163.374L684.952 167.805L682.59 172.236L679.047 177.848L678.162 180.802L679.047 186.71L677.276 189.959L673.143 189.664L666.352 191.141L662.809 195.572L658.676 199.117L657.495 204.138L653.362 209.751L651.295 214.477L653.362 218.317L654.248 221.271L647.752 227.179L645.095 230.428L644.505 234.268L650.409 237.813L651.59 241.949L642.143 243.426V246.675L641.848 249.038L643.914 254.355L646.571 257.605L648.933 259.672L650.409 261.74L651.886 266.171L652.476 270.897L653.952 275.328L658.381 280.646L663.105 284.486L666.648 287.144L667.828 290.689L665.171 298.074L664.876 301.914L661.924 303.095L656.314 305.459L653.952 309.594L656.609 326.136L650.705 325.545L645.981 326.136L645.686 327.909L647.752 330.863L651.295 334.112L651.886 339.724L652.476 341.792L651.295 344.451L648.933 350.654L645.981 357.448L652.181 363.356L649.819 366.31L645.686 368.378L645.095 373.399L649.524 376.649L646.571 380.193L643.029 379.307L638.305 390.532L627.381 389.351L623.248 395.259L618.524 395.849L614.686 394.077L609.962 390.237L602.286 393.782L598.152 392.009L594.314 392.305L590.771 395.554L589.59 398.508L587.819 403.825L586.047 403.53L582.8 400.871L578.962 400.576L576.305 400.871L572.467 396.145L567.743 394.077L559.476 389.942L558.295 388.465L555.638 382.852L549.733 383.147L541.762 386.397L535.857 389.646L532.609 393.191L528.771 396.44V399.69L530.248 405.302L532.609 410.028L531.724 411.801L527.59 413.868L526.41 413.278L523.162 408.847L521.981 404.711L519.914 400.28L517.552 397.622L506.629 387.578L505.448 383.443L489.8 389.351L488.914 397.326L485.667 400.871L485.371 405.007L481.533 407.074L478.581 403.53L475.629 405.597L471.495 409.438L470.609 413.868L467.067 414.164L466.181 410.619L462.343 412.391L460.276 417.413L455.257 416.822L450.533 420.072L449.943 414.755L446.4 409.733L440.2 406.188L439.314 400.28L434.59 398.508L433.705 393.782L436.952 391.123L434 387.283L426.324 389.351L423.667 399.394L419.238 401.462L415.99 399.69L412.448 401.462L411.267 405.302L409.2 405.893L406.838 404.416L400.343 402.939L397.39 399.099L404.181 394.077L401.819 390.532L387.057 396.736L382.924 398.213L372 387.283L369.343 385.511L363.143 379.898L361.076 375.763L364.619 372.218L368.752 369.264L368.457 365.424L366.981 361.879L365.505 359.516L361.962 356.266L364.324 354.494L363.438 350.063L358.124 350.654L353.105 353.017L347.495 355.676L345.133 354.494L344.248 352.722L341.295 346.223L336.867 340.315L333.324 337.066L334.209 333.817L340.41 334.112L341 326.136L334.209 323.182L335.981 317.865L332.733 312.548L328.895 313.434L322.695 315.502L318.562 310.185L314.429 306.049L306.752 305.163L306.162 299.846L305.276 293.643L301.143 288.621L302.914 282.122L289.924 277.101L274.571 279.169L274.867 290.984L269.257 291.87L263.057 293.643L251.248 298.074L243.571 302.505L244.162 315.502L237.076 316.093L235.01 309.594L228.809 309.89L227.924 308.117L221.429 309.594L222.019 314.911L207.257 303.982L213.162 297.483L206.962 294.529L200.762 297.188L194.562 294.234L191.905 297.778L188.362 300.141L184.524 299.846L182.457 300.437L178.619 303.095L173.305 301.618L169.467 298.96L166.219 293.938L161.2 286.849L158.248 284.19L156.476 280.35L150.276 283.009L146.143 284.781L142.01 285.076L136.105 284.781L132.857 286.553L130.495 290.689L127.838 294.529L120.162 290.984L115.438 288.326L108.352 286.553L101.857 285.667L98.3142 283.599L85.9143 285.963L86.2095 285.076L82.9619 282.418L86.5047 274.738L87.6857 272.374L86.5047 268.83L80.3047 265.285L75.8761 259.672L67.9048 251.992L64.0666 246.38L60.8191 238.404L59.0476 231.61L59.3429 224.816L58.4571 221.271L55.2095 223.044L52.2571 226.293L48.419 225.997L44.8761 222.748L40.4476 213.295L37.2 202.957L36.019 196.458L34.5428 187.891L32.4762 187.301L30.7047 185.528L32.1809 184.051L32.7714 180.211L30.4095 176.667L24.5047 175.485L22.4381 171.349L19.1905 163.078L20.9619 160.124L20.3714 155.989L9.1524 156.58V146.241L3.24764 148.604L7.67621 142.105L10.3333 137.97L10.0381 133.243L7.67621 128.517L5.31425 125.563L5.01899 119.655L5.60951 114.043L3.24764 111.089L0 106.067Z" fill="#D5EDF5"/>
</svg>
